<svg xmlns="http://www.w3.org/2000/svg" width="36.851" height="47.476" viewBox="0 0 36.851 47.476">
  <path id="Icon_simple-django" data-name="Icon simple-django" d="M20.765,0h7.763V35.935a51.235,51.235,0,0,1-10.081,1.058c-9.478,0-14.418-4.285-14.418-12.5,0-7.915,5.242-13.056,13.359-13.056a12.393,12.393,0,0,1,3.377.4Zm0,18.087a7.7,7.7,0,0,0-2.621-.4c-3.933,0-6.2,2.419-6.2,6.655,0,4.135,2.168,6.4,6.15,6.4a17.91,17.91,0,0,0,2.671-.2V18.085Zm20.115-6.1v18c0,6.2-.453,9.175-1.814,11.745-1.26,2.471-2.924,4.034-6.352,5.747L25.5,44.048c3.428-1.612,5.092-3.025,6.15-5.193,1.11-2.218,1.462-4.789,1.462-11.543V11.986H40.88ZM33.117.042H40.88V8.006H33.117Z" transform="translate(-4.029)" fill="#5c6ac4"/>
</svg>
