<svg xmlns="http://www.w3.org/2000/svg" width="28.073" height="18.95" viewBox="0 0 28.073 18.95">
  <path id="Icon_zocial-email" data-name="Icon zocial-email" d="M.072,21.339V5.746q0-.027.081-.514L9.33,13.083l-9.15,8.8a2.294,2.294,0,0,1-.108-.541ZM1.29,4.149a1.167,1.167,0,0,1,.46-.081H26.466a1.533,1.533,0,0,1,.487.081l-9.2,7.878L16.531,13l-2.409,1.976L11.713,13l-1.218-.975Zm.027,18.787,9.231-8.852,3.573,2.9,3.573-2.9,9.231,8.852a1.3,1.3,0,0,1-.46.081H1.75a1.226,1.226,0,0,1-.433-.081Zm17.6-9.854,9.15-7.851a1.616,1.616,0,0,1,.081.514V21.339a2.075,2.075,0,0,1-.081.541Z" transform="translate(-0.072 -4.068)" fill="#5c6ac4"/>
</svg>
