<svg xmlns="http://www.w3.org/2000/svg" width="30.214" height="29.459" viewBox="0 0 30.214 29.459">
  <path id="Icon_awesome-github" data-name="Icon awesome-github" d="M10.106,24.283c0,.122-.14.219-.317.219-.2.018-.341-.079-.341-.219,0-.122.14-.219.317-.219C9.947,24.045,10.106,24.143,10.106,24.283Zm-1.894-.274c-.043.122.079.262.262.3a.286.286,0,0,0,.378-.122c.037-.122-.079-.262-.262-.317A.313.313,0,0,0,8.211,24.009Zm2.692-.1c-.177.043-.3.158-.28.3.018.122.177.2.359.158s.3-.158.28-.28S11.08,23.887,10.9,23.905ZM14.912.562A14.607,14.607,0,0,0,0,15.426,15.272,15.272,0,0,0,10.325,30c.78.14,1.054-.341,1.054-.737,0-.378-.018-2.461-.018-3.74,0,0-4.264.914-5.16-1.815,0,0-.694-1.773-1.693-2.23,0,0-1.395-.956.1-.938a3.215,3.215,0,0,1,2.351,1.572A3.22,3.22,0,0,0,11.4,23.381a3.386,3.386,0,0,1,.975-2.053c-3.405-.378-6.841-.871-6.841-6.731A4.617,4.617,0,0,1,6.969,11.01a5.755,5.755,0,0,1,.158-4.136c1.273-.4,4.2,1.645,4.2,1.645a14.391,14.391,0,0,1,7.651,0s2.93-2.047,4.2-1.645a5.753,5.753,0,0,1,.158,4.136A4.735,4.735,0,0,1,24.914,14.6c0,5.878-3.588,6.347-6.993,6.731a3.6,3.6,0,0,1,1.036,2.826c0,2.053-.018,4.593-.018,5.093,0,.4.28.877,1.054.737A15.131,15.131,0,0,0,30.214,15.426C30.214,6.977,23.361.562,14.912.562ZM5.921,21.572c-.079.061-.061.2.043.317.1.1.238.14.317.061.079-.061.061-.2-.043-.317C6.14,21.536,6,21.493,5.921,21.572Zm-.658-.493c-.043.079.018.177.14.238a.181.181,0,0,0,.262-.043c.043-.079-.018-.177-.14-.238C5.4,21,5.306,21.018,5.263,21.079Zm1.974,2.169c-.1.079-.061.262.079.378.14.14.317.158.4.061.079-.079.043-.262-.079-.378C7.5,23.168,7.316,23.15,7.237,23.247Zm-.694-.9c-.1.061-.1.219,0,.359s.262.2.341.14a.278.278,0,0,0,0-.378C6.8,22.334,6.64,22.273,6.542,22.352Z" transform="translate(0 -0.563)" fill="#5c6ac4"/>
</svg>
