<svg xmlns="http://www.w3.org/2000/svg" width="40.72" height="40.72" viewBox="0 0 40.72 40.72">
  <path id="Icon_simple-javascript" data-name="Icon simple-javascript" d="M0,0H40.72V40.72H0ZM37.384,31.008c-.3-1.858-1.507-3.419-5.1-4.875-1.249-.585-2.637-.993-3.049-1.934a2,2,0,0,1-.078-1.2,1.945,1.945,0,0,1,2.57-1.12,2.76,2.76,0,0,1,1.656,1.527c1.754-1.147,1.754-1.147,2.978-1.909a7,7,0,0,0-.994-1.323c-1.069-1.2-2.492-1.807-4.808-1.754l-1.2.151a5.469,5.469,0,0,0-2.9,1.705,5.323,5.323,0,0,0,.965,7.586c2.316,1.731,5.7,2.111,6.135,3.741.407,1.985-1.476,2.621-3.336,2.392a4.467,4.467,0,0,1-2.978-2.267l-3.1,1.783A6.861,6.861,0,0,0,25.523,35.4c2.952,2.979,10.333,2.827,11.658-1.7a5.743,5.743,0,0,0,.126-2.8l.078.114ZM22.143,18.716H18.329c0,3.288-.015,6.556-.015,9.849,0,2.09.107,4.009-.234,4.6-.56,1.169-2,1.02-2.657.814a3.274,3.274,0,0,1-1.408-1.451A1.456,1.456,0,0,0,13.8,32.2L10.7,34.1a6,6,0,0,0,2.246,2.574,7.467,7.467,0,0,0,5.441.687,4.766,4.766,0,0,0,3.073-2.394c.865-1.578.682-3.512.674-5.677.02-3.485,0-6.972,0-10.484l.007-.1Z" fill="#5c6ac4"/>
</svg>
