<svg xmlns="http://www.w3.org/2000/svg" width="27.071" height="27.071" viewBox="0 0 27.071 27.071">
  <path id="Icon_awesome-phone-alt" data-name="Icon awesome-phone-alt" d="M26.3,19.13l-5.922-2.538a1.269,1.269,0,0,0-1.48.365l-2.623,3.2a19.6,19.6,0,0,1-9.369-9.369l3.2-2.623a1.266,1.266,0,0,0,.365-1.48L7.936.767A1.277,1.277,0,0,0,6.482.032L.983,1.3A1.269,1.269,0,0,0,0,2.538,24.531,24.531,0,0,0,24.533,27.071a1.269,1.269,0,0,0,1.237-.983l1.269-5.5A1.284,1.284,0,0,0,26.3,19.13Z" transform="translate(0 0)" fill="#5c6ac4"/>
</svg>
