<svg xmlns="http://www.w3.org/2000/svg" width="41.545" height="41.545" viewBox="0 0 41.545 41.545">
  <path id="Icon_awesome-python" data-name="Icon awesome-python" d="M40.783,17.875c-.714-2.865-2.068-5.026-4.952-5.026H32.113v4.4a6.36,6.36,0,0,1-6.194,6.287h-9.9a5.053,5.053,0,0,0-4.952,5.035v9.44c0,2.689,2.337,4.266,4.952,5.035a16.664,16.664,0,0,0,9.9,0c2.494-.723,4.952-2.179,4.952-5.035V34.233H20.976V32.972H35.831c2.884,0,3.95-2.012,4.952-5.026,1.039-3.106.992-6.092,0-10.071ZM26.54,36.746a1.887,1.887,0,1,1-1.864,1.882A1.874,1.874,0,0,1,26.54,36.746ZM15.56,22.289h9.9a4.993,4.993,0,0,0,4.952-5.035V7.8c0-2.689-2.263-4.7-4.952-5.156a30.566,30.566,0,0,0-9.9.009c-4.191.742-4.952,2.29-4.952,5.156v3.774h9.913v1.261H6.89A6.191,6.191,0,0,0,.7,17.875a18.573,18.573,0,0,0,0,10.071c.7,2.93,2.383,5.026,5.267,5.026h3.4V28.446A6.3,6.3,0,0,1,15.56,22.289ZM14.939,9.066A1.887,1.887,0,1,1,16.8,7.183,1.874,1.874,0,0,1,14.939,9.066Z" transform="translate(0 -2.25)" fill="#5c6ac4"/>
</svg>
