<svg xmlns="http://www.w3.org/2000/svg" width="47.478" height="41.546" viewBox="0 0 47.478 41.546">
  <path id="Icon_awesome-react" data-name="Icon awesome-react" d="M38.78,15.714q-.751-.25-1.5-.473c.083-.343.158-.686.232-1.029,1.141-5.527.389-9.969-2.142-11.434-2.439-1.4-6.417.056-10.441,3.561-.4.343-.788.7-1.159,1.066-.25-.241-.51-.482-.77-.714-4.219-3.746-8.448-5.323-10.979-3.848-2.43,1.41-3.153,5.592-2.133,10.822.1.519.213,1.029.343,1.549-.593.167-1.178.352-1.725.547C3.552,17.476,0,20.184,0,22.984c0,2.893,3.783,5.8,8.93,7.558.417.139.835.278,1.261.4-.139.556-.26,1.1-.371,1.669-.974,5.147-.213,9.227,2.216,10.627,2.5,1.447,6.714-.037,10.812-3.626.325-.287.649-.584.974-.9.408.4.835.779,1.261,1.15,3.969,3.412,7.891,4.794,10.312,3.394,2.5-1.447,3.32-5.833,2.263-11.174q-.125-.612-.278-1.252c.3-.083.584-.176.872-.269,5.351-1.771,9.227-4.637,9.227-7.576,0-2.81-3.654-5.536-8.7-7.27ZM26.233,7.841c3.45-3,6.667-4.182,8.132-3.338,1.567.9,2.17,4.535,1.187,9.31-.065.315-.13.621-.213.927a47.471,47.471,0,0,0-6.241-.983,46.852,46.852,0,0,0-3.95-4.924C25.51,8.49,25.863,8.166,26.233,7.841ZM15.5,27.8c.473.807.955,1.614,1.465,2.4a41.99,41.99,0,0,1-4.3-.7,43.317,43.317,0,0,1,1.512-4.127c.427.816.862,1.623,1.326,2.42Zm-2.81-11.155c1.335-.3,2.754-.538,4.229-.723-.491.77-.974,1.558-1.428,2.355s-.9,1.595-1.317,2.411c-.584-1.382-1.076-2.736-1.484-4.043Zm2.541,6.389c.612-1.28,1.28-2.532,1.984-3.765s1.465-2.43,2.263-3.607c1.391-.1,2.81-.158,4.256-.158s2.875.056,4.256.158q1.182,1.753,2.253,3.589t2.012,3.746q-.932,1.92-2,3.783c-.7,1.233-1.456,2.43-2.244,3.616-1.382.1-2.819.148-4.275.148s-2.865-.046-4.229-.13Q18.3,28.645,17.229,26.8c-.714-1.233-1.372-2.485-1.994-3.765Zm16.747,4.748c.473-.816.918-1.641,1.354-2.476A43.045,43.045,0,0,1,34.9,29.411a40.729,40.729,0,0,1-4.358.742C31.046,29.373,31.519,28.576,31.983,27.778Zm1.335-7.094c-.436-.816-.881-1.632-1.345-2.43s-.927-1.567-1.419-2.337a42.672,42.672,0,0,1,4.256.742A41.04,41.04,0,0,1,33.318,20.685ZM23.758,10.252a40.718,40.718,0,0,1,2.745,3.32c-1.836-.083-3.681-.083-5.517,0C21.894,12.376,22.83,11.263,23.758,10.252ZM13,4.568c1.558-.909,5.017.389,8.661,3.616.232.2.464.427.7.649a47.113,47.113,0,0,0-3.978,4.924,48.882,48.882,0,0,0-6.231.964c-.121-.473-.223-.955-.325-1.437C10.961,8.8,11.536,5.412,13,4.568ZM10.729,29.012c-.389-.111-.77-.232-1.15-.362a18.913,18.913,0,0,1-5.842-2.893,4.161,4.161,0,0,1-1.743-2.773c0-1.7,2.93-3.867,7.159-5.341.529-.185,1.066-.352,1.6-.51a49.31,49.31,0,0,0,2.272,5.9A50.689,50.689,0,0,0,10.729,29.012ZM21.541,38.1a16.973,16.973,0,0,1-5.23,3.273,4.1,4.1,0,0,1-3.273.121c-1.474-.853-2.086-4.127-1.252-8.531.1-.519.213-1.039.343-1.549a46.39,46.39,0,0,0,6.3.909,48.937,48.937,0,0,0,4.006,4.952C22.135,37.562,21.838,37.84,21.541,38.1Zm2.272-2.253c-.946-1.02-1.892-2.151-2.81-3.366.89.037,1.808.056,2.736.056.955,0,1.892-.019,2.819-.065a39.991,39.991,0,0,1-2.745,3.375Zm12.12,2.782a4.121,4.121,0,0,1-1.53,2.9c-1.474.853-4.618-.26-8.012-3.171-.389-.334-.779-.7-1.178-1.066a45.873,45.873,0,0,0,3.913-4.97,45.715,45.715,0,0,0,6.324-.974c.093.38.176.76.25,1.131a16.9,16.9,0,0,1,.232,6.148Zm1.688-9.969c-.26.083-.519.167-.788.241a47.106,47.106,0,0,0-2.365-5.916,46.873,46.873,0,0,0,2.272-5.833c.482.139.946.287,1.391.436,4.321,1.484,7.354,3.691,7.354,5.378,0,1.818-3.236,4.164-7.864,5.694ZM23.739,27.268a4.247,4.247,0,1,0-4.247-4.247A4.246,4.246,0,0,0,23.739,27.268Z" transform="translate(0 -2.251)" fill="#5c6ac4"/>
</svg>
