<svg id="Layer_1" data-name="Layer 1" xmlns="http://www.w3.org/2000/svg" viewBox="0 0 612 792"><path d="M249.28,296.23c.42-2.25.82-3.77,1-5.32.67-6.3,1.76-12.61,1.79-18.92,0-7.41-1.13-14.82-1.28-22.23a132,132,0,0,1,1-16.62c.28-2.68,2.49-3.82,5.11-4,4.41-.37,7,1.22,9.26,5.51a45.05,45.05,0,0,0,3.61,4.78c1-2.95,1.65-4.68,2.16-6.46,2-7.14,7.25-9.62,14.2-6.84,3.26,1.31,4.16,3.95,4.17,7,0,8-.06,16-.28,24-.31,11.41-.8,22.82-.2,34.59a21.9,21.9,0,0,0,2-1.9c1.8-2.22,3.87-3.74,6.94-3.56a5.94,5.94,0,0,0,5.9-3.12,7.66,7.66,0,0,1,3-3c2.7-1.31,4.85-2.85,6.1-5.8a4.91,4.91,0,0,1,5.49-2.76c3.55.59,7.07,1.45,10.57,2.3,2.74.67,5.44,1.5,9,2.5.57-5.9,1.32-10.87,1.46-15.86.32-11.07.35-22.15.45-33.23.06-7.2,1.61-9.21,8.45-10.87,3.7-.89,7.37-2,11.07-2.86,2.66-.65,4.45-2,5.19-4.83,1-4,3.84-5.68,8-6.1a87.13,87.13,0,0,1,19,.37c5,.59,10.12-.26,15.19-.52,6.2-.32,12.26-.46,17.91,3.05,1.61,1,3,1.57,3.59,3.53.67,2.28,2.49,2.82,4.72,2.72,3.81-.17,7.64,0,11.44-.32A15.28,15.28,0,0,1,455,214a7.17,7.17,0,0,1,3.07,3.59c1.44,5.73,3.39,11.27,3.48,17.4.2,12.3,1.18,24.58,1.86,37.22l7.32-1.58c2.53-11.58,4.74-13.69,14.06-13.68,8.66,0,11.1,2.57,13.56,14.18,2.21.95,2.64-.39,3.25-2.18,2.68-7.92,2.51-16.08,2.37-24.25,0-1.82-.2-3.64-.13-5.45.15-3.84,1.23-5.56,4.92-6a58.47,58.47,0,0,1,10.82.17,2.89,2.89,0,0,1,2,1.57c1.17,3,3.43,3.07,6.16,3.15s5.31,1.12,8,1.54c2.22.35,3.42,1.67,4.54,3.48,3.08,5,3.52,10.61,4.12,16.18.49,4.68,1.15,5.51,5.9,6,2.34.22,4.73.07,7.07.31,4.06.41,4.66,1.16,4.55,5.13,0,1.27-.19,2.53-.24,3.8-.34,7.91.63,15.35,4.85,22.46,5.73,9.66,10.65,19.81,15.86,29.65l7.19.57a31.81,31.81,0,0,1,1,4.73c.22,3-1.33,4.85-4.27,5.26a25.25,25.25,0,0,1-4.35.05c-12.55-.46-25-.1-37.42,2.32-4,.78-8.33.46-12.48.22-7.79-.46-15.55-1.24-23.32-1.84-3.3-.25-8.24,3.42-9.3,7.12a28.44,28.44,0,0,0-.93,6.44c-1,21.63,0,43.18,1.6,64.76.5,6.92,3.5,9.68,8.87,12.35,11.05,5.47,21.82,11.49,32.76,17.17,3.49,1.81,5,5.18,6.86,8.18,1.31,2.07-.07,4-2.71,4.73-7,1.94-14,3.61-20.8,6.08a40.34,40.34,0,0,1-16,2.44c-10.52-.49-21.05-1-31.55-1.77-7.23-.53-14.45-1.46-21.66-2.34-22.83-2.79-45.68-2.22-68.53-.29-16.83,1.43-33.62,3.45-50.47,4.33-9.55.51-19.21-.5-28.79-1.27-13.57-1.09-27.08-2.85-40.66-3.8a101.35,101.35,0,0,0-17.9.86c-18.59,2-37.15,4.36-55.74,6.42a54.78,54.78,0,0,1-16.75-1.18,88.8,88.8,0,0,0-19.44-1.73c-22.83.64-45.31-1.92-67.65-6.36a57.8,57.8,0,0,0-8.66-.58c-8.7-.34-17.42-.58-26.12-1a20.78,20.78,0,0,1-5.33-1.08,8.07,8.07,0,0,1-6-8.13c.16-4.33,2.57-7.15,6.86-8.15a8.62,8.62,0,0,0,2.46-1c14.67-8.91,30.53-15.19,46.5-21.21,7.48-2.81,15-5.6,22.49-8.27,2.92-1,4.47-2.49,4.2-5.92-.33-4.3-.08-8.64-.08-13.08-2.17.25-3.93.56-5.69.65q-22,1.1-44.06,2.14c-7.4.36-14.78.69-22.15-4.26,24.32.75,47.65-4.17,71.72-.75a104,104,0,0,0,.14-18.63c-.07-.8-1.31-1.5-2-2.24,4.41-5,.83-10.76,1.67-16.15-5.84-1.9-11.24-2.47-16.6-1.22a23.17,23.17,0,0,1-13.36-1c-5-1.75-9.87-1.78-15-1.05-6.82,1-13.7,1.64-20.58,2a31.72,31.72,0,0,1-10.07-1.45,27.84,27.84,0,0,1,3.89-.93c9.19-.91,18.43-1.47,27.57-2.7a30.63,30.63,0,0,1,14,.86,26.73,26.73,0,0,0,15,.71c2.57-.61,5.35-.26,8-.45,2.13-.14,4.26-.44,6.6-.7V333l-82.76-3.7c-2.19-6.44-2.19-6.44,7.8-8.69,0-3.42-.14-7,0-10.57a32.41,32.41,0,0,1,1.17-7.47,8.67,8.67,0,0,1,2.69-3.86c3.44-2.94,7.11-5.61,10.61-8.48,3-2.47,6-4.2,10.3-3.73,3.68.4,7.58-.5,11.28-1.31,1.35-.29,2.73-1.78,3.51-3.08a85.64,85.64,0,0,0,5-9.65,6.2,6.2,0,0,1,5.79-4.13c2-.14,3.91-.88,5.89-1,3.75-.27,7.52-.35,11.29-.44,2.5-.06,5,0,8.23,0-.59-8.92-1.14-17.35-1.73-26.22-1.57-.75-3.31-1.65-5.1-2.43a36.78,36.78,0,0,1-16.07-13.41c-7.2-10.55-11-22-10.49-34.83a63.44,63.44,0,0,0-.07-9.25c-.58-5.3-1.58-10.49-7.54-12.74-2-.77-2.5-2.69-1.92-4.56,1.63-5.23,3.75-10.23,7.64-14.26,2.24-2.32,4.83-3.25,7.86-1.79,3.91,1.87,7.8,3.78,11.6,5.87,4.52,2.5,8.72,2.12,12.54-1.15a6.77,6.77,0,0,0,2.61-6.17c-.24-3.07-.15-6.17-.11-9.26,0-2.62,1.38-4,4.07-4,.73,0,1.46,0,2.18,0,5.18,0,5.77.7,5.86,6.13,0,2.72,0,5.46.35,8.16.65,5.86,4.09,8.54,9.95,7.94a17.39,17.39,0,0,0,9.66-4.61,32.28,32.28,0,0,1,6.13-4.43c3.79-2,6.69-1.46,9.22,1.75,3.24,4.11,6.14,8.5,9.41,13.08-8.65,4.83-9.81,12.53-9.68,21.1.11,7.42-.41,14.87-1,22.27-.69,8.34-4.31,15.72-8.68,22.68a28.76,28.76,0,0,1-17.44,13.09c-2.09.55-4.12,1.34-6.47,2.13V266c1.7,0,3.26,0,4.82,0,2.71,0,5.42-.26,8.12-.08,1.38.09,3.21.47,4,1.41,3.33,4,7,7.89,9.24,12.47,1.72,3.54,3.52,5.69,7.32,6.18.87.12,1.74.35,3.29.66.4-4.35,1.07-8.44,1.09-12.54,0-7.79-.27-15.58-.5-23.36-.15-4.93,1.14-7.32,4.53-8.05,5.22-1.13,6.19-.44,7.18,5,.31,1.69.73,3.36,1.15,5.26,2.58-.78,2.55-2.28,2.41-4-.5-6.14-1.45-12.3-1.25-18.42a254.44,254.44,0,0,1,2.29-25.39c.78-5.82,1.34-5.94,7.2-7,1.07-.2,2.11-.66,3.18-.75,8.83-.74,11.66-.29,13.56,9.14.57.14,1.24.32,1.91.46,4.63.95,5.26,1.51,5.29,6,.07,10-.05,20,0,30,.06,10.89.29,21.79.33,32.68a5.15,5.15,0,0,0,2.81,4.83,20.84,20.84,0,0,1,8.6,9.57,6.61,6.61,0,0,0,3.39,3C242,294.27,245.18,295,249.28,296.23Zm2.94,35.44.17-.2c-1.82,1.72-3.64,3.44-1.66,6.65l5.63-3.18.36.63-4.47,4.11c4.13-.52,8.14-3.8,6.85-5.46-2.75-3.53,1-5.71.7-8.53-.07-.63.69-1.31.73-2,.15-2.74.3-5.53-2.92-7.86,0,2.78.06,4.91,0,7-.1,2.65.24,5.46-2.26,7.39l1.14-9.57-.81-.08ZM545,323v0c-3.24-2-3.86-5.39-4.21-9.06-2.3,0-4.27-.11-6.23,0-2.33.18-4.65.71-7,.78-.64,0-1.31-1.06-2.92-2.47h16.3c-.68-3.13-1.2-5.76-1.83-8.36-.29-1.19-.79-2.32-1.29-3.73l-2.66,4.46c-8.32-4.16-9.7-7.08-7.08-14.76,2.6,3.26-.59,8.63,3.83,10.66,0-6.9.24-13.88-.07-20.85-.28-6.58-4.24-11.28-9-15.56-4.47,1.38-8.38,3.33-11.35,7.11a12.59,12.59,0,0,0,1.59,2.47c2.78,2.54,5.65,5,8.47,7.48,1.3,1.15,2.31,2.6,1.08,4.24-1.45,1.94-2.87.64-4.07-.5a15.71,15.71,0,0,0-8.76-3.91c-1.31-.21-3-.95-3.61-2-1.66-2.94-4.58-3-7.24-4.27v17.6h5.67l.13.86-6,1.35V301c3.69.7,4.91-1.66,6.3-4.15,2.62-4.66,7.2-6.94,11.18-5.92,4.42,1.14,6.61,4.6,6.4,10.62-.31,8.72-.82,17.42-5.05,25.38a5.1,5.1,0,0,0-.15,1.95h39.39c-2.3-7.71-4.76-11-9-11.86a17.5,17.5,0,0,0,.88,2.55c.81,1.52,2.84,3.14.9,4.64C548.78,324.8,546.53,323.49,545,323ZM287.54,301.23l.1.08c-.55-2.07-1.54-4.14-1.58-6.23q-.31-17.68-.2-35.38c.05-8.52.56-17,.61-25.58,0-4.6-.76-5.07-5.84-4.53.12,1.73.09,3.51.38,5.23a88.35,88.35,0,0,1,.68,22.68c-.09,1-1.15,1.95-1.76,2.92-.66-.93-1.84-1.82-1.9-2.77-.21-3.43,0-6.87,0-10.31,0-2.83.68-5.89-2.42-7.75-4,2-7.06,4.45-6.28,9.6.13.84-1.14,1.89-1.77,2.84-.79-.78-1.93-1.43-2.3-2.38-1.7-4.39-3.08-8.91-4.82-13.28a2.48,2.48,0,0,0-4.9.54c-.52,3.39-1.17,6.9-.82,10.27.75,7.21,1.23,14.23,0,21.55-1.46,8.84-1.39,17.93-2,27.08,7.82.92,15-3,22.43-1.34-2.22.85-4.56,1-6.75,1.64-10.85,3.18-22,1.6-33,2.31a9.28,9.28,0,0,1-4.2-.95c-.8-.35-1.28-1.42-2.06-2.36l3.2-1.55c-.65-4.59-3.4-7.74-7.12-9.85s-4.78-4.86-4.71-8.94c.26-14.34.24-28.68.28-43,0-6-.06-12-.14-18A6.62,6.62,0,0,0,220,212l-3.74.74c0,2.61,0,5,0,7.31q-.08,6.27-.2,12.52c0,1.5-.16,3.2-2.13,3.09s-1.91-1.86-1.88-3.34c.07-4.86-.39-9.81.42-14.55.64-3.64-.15-6.8-1-10.09-.56-2.25-1.53-4.4-2.37-6.73a15.79,15.79,0,0,1-1.94,0c-9.06-1-10.72.34-11.6,9.52a10,10,0,0,0-.08,1.09c0,13.84-2.16,27.65.53,41.56,1.07,5.53-.28,11.53-.59,17.31-.08,1.61-.2,3.32-3.06,3.86-2.29-5.95-.28-12.36-1.75-18.55-3.22,1-4.15-1.16-4.64-3.69-.34-1.78-.46-3.6-.77-5.39a6.49,6.49,0,0,0-.94-1.63l-4.5.71c0,2.18-.12,4.13,0,6.05.18,2.35.93,4.69.83,7-.35,8.15-.68,16.33-1.57,24.43-.62,5.55-1.56,11.19-5.13,15.87-4.74,6.2-9.51,12.38-14.22,18.6a35.4,35.4,0,0,0-2.12,3.55c6.9.61,13.37,1.3,19.86,1.73a146.82,146.82,0,0,0,14.68.36c9.43-.33,18.85-1.06,28.28-1.44,5-.2,10,0,15.18,0a84.66,84.66,0,0,1,1.41-8.59,86.5,86.5,0,0,1,3-8.11c-3.73-.44-7.81.86-12.48-1,9.49-1.82,39.47-3,44.61-1.55-9.47,3.86-19-.83-27.9,2.45,6.53,4.45,3.87,11.32,5.23,17,2.9-.83,2.87-.84,4.11-4.47.58-1.7,1.16-4,3.36-3.61a9.86,9.86,0,0,1,4.77,3c.86.9.91,2.57,1.36,4,5.64,0,11-.71,16.12.16,8.85,1.52,14-4.23,20-8-3.38-3.78-6.34-7.14-9.38-10.43A9.62,9.62,0,0,0,287.54,301.23Zm140.59-72.88c-3.94-3.52-3.84-7.2-3.49-10.1.6-4.92-.94-8.3-4.31-10.85-12.5-.37-24.66-.52-36.8-1.21a12.6,12.6,0,0,0-11,4.59c-2.52,3.14-6.23,6.54-3.71,11.61a3.74,3.74,0,0,1-.12,2.1c-1.54,7.85-2.78,15.68-1.15,23.71.39,1.91,0,4,0,6q-.39,13.32-.81,26.63c-.06,2-.2,4-.35,6.87-.94-1.15-1.47-1.51-1.53-1.92-1.38-10.27-2.41-20.59-1-30.9a40.47,40.47,0,0,0-2.14-18.74c-1.93-5.68-4.19-11.19-3.83-18.05-2.7.73-4.86,1.63-7.09,1.86-4.49.46-5.49,3.54-6,7.18,0,.18,0,.36-.06.54-.27,6.15-.64,12.29-.78,18.44-.26,11.62-.22,23.29-3.4,34.57-1.3,4.57-3.67,8.84-5.55,13.26l4,.69c0,.37,0,.74,0,1.11-1.52.1-3.06.1-4.57.31a10.93,10.93,0,0,0-4,1q-8.92,5.24-17.66,10.75c-6.52,4.13-12.93,8.41-19.4,12.63a49.46,49.46,0,0,0,11.84.86c16-.44,31.93-1.41,47.89.14,6.5.63,13.05,1.51,19.53,1.25,20.68-.8,41.34-2.11,62-3.17,3-.16,6.06,0,9.14,0V315c-7.6.42-7.6.42-9.62-1.71l10.3-.71,3.29-5.08c-8.39,0-16.51,0-24.64,0-6.15,0-12.31.16-18.46.2-5.44,0-10.88-.13-16.31,0-10.14.32-20.29.86-30.43,1.22a20.61,20.61,0,0,1-4.2-.71l.2-1.15c2.72,0,5.43.1,8.14,0q22.28-.94,44.56-2c5.43-.25,10.84-.71,16.27-1,4.16-.22,8.32-.3,12.49-.44,5.06-.16,10.13-.41,15.19-.48,5.9-.08,11.79,0,17.69,0l.14.68-12.16,2c4.58,2.42,6.76,7.58,12.36,6.34l-4.7,1.93c.3,6.09.32,6.11,7,5.38V298.56a82,82,0,0,1-8.5-.07c-2.32-.26-5.23,1.46-7.41-2l14.91-.7c-.72-1.6-1.59-2.79-2.59-2.91a186.4,186.4,0,0,0-18.84-1.67c-5.22-.07-10.46.9-15.7,1.3a7.43,7.43,0,0,1-2.51-.73l.12-.86,19-2.41c0-3.75,0-7.17,0-10.58s-.24-6.81-3.17-9.41c-1.57-1.4-1.67-3.34-.53-5.35,7.9,7,6.36,16.45,7.15,25.19,3.53.89,6.61,2.64,11,1.61-6.84-9.38-6.91-20-7.13-30.46-.15-7.44.36-14.89.26-22.32-.05-3-.89-6-1.47-9-.44-2.27-1.23-4.5-1.5-6.78-.41-3.43-1.41-5.35-4.73-5.53-6.64-.37-13.3-.11-20.29-.11a48.72,48.72,0,0,1,.43,6.11A55.05,55.05,0,0,1,428.13,228.35ZM323.88,329.55c.65,6.6,5.75,22.32,8.62,26.64a18.74,18.74,0,0,0,2.57,2.71c4.69,4.66,10.68,6.66,16.9,8.2,4,1,8.13,1.86,12.1,3.11,18.5,5.82,36.88,12,54.43,20.37,14.16,6.71,29.11,11.06,44,15.52,1.18.35,2.42.47,3.88.74,0-3.52.06-6.74,0-9.95q-.32-14.16-.74-28.3c-.12-4.07-.52-7.9-5.05-9.9-10-4.44-14.07-13-15.65-23.24-.27-1.75-.65-3.48-1.05-5.6-5.15.3-10,.7-14.85.86-9.95.31-20,1.5-29.83.48-13.26-1.37-26.36-1.83-39.59-.3-3.56.41-7.23-.1-10.85-.25C340.52,330.3,332.23,329.92,323.88,329.55ZM139.31,371.4a195.65,195.65,0,0,0,.78,31.93,7,7,0,0,0,1.61-.1c12.83-5,25.64-10.09,38.49-15.08a125.5,125.5,0,0,1,12.8-4.52c10.86-2.88,21.81-5.43,32.71-8.2,3.28-.84,6.49-2,9.81-3V349.06a21.77,21.77,0,0,0-2.94-.23c-4.34.32-7.4-1.82-9.37-5.34a51.92,51.92,0,0,1-3.44-8.53,55.33,55.33,0,0,1-1.32-5.47c-.82-.15-1.21-.35-1.51-.25-10,3.21-20.06,2.07-30.19,1.23a88.85,88.85,0,0,0-10.32,0c-8.15.29-16.3.66-24.45,1-4.3.18-8.6.38-13,.58v15.5c4.46.27,8.59.86,12.7.72,13.66-.45,27.34-1.79,40.82,2.43a16.74,16.74,0,0,1-5.56.64c-8.56-.92-17-.05-25.46,1.23-5.86.88-11.89.62-17.85.85-1.38.05-2.76,0-4.07,0v12.11h5.91c5.81,0,11.66-.54,17.4.05a52.6,52.6,0,0,0,17.84-.88,49.16,49.16,0,0,1,20.53-.19c4.65.83,9.21,1.9,14,.69,1.79-.45,3.78-.07,5.68-.07,0,.36,0,.73.07,1.09-6.42,1.24-12.79,2.68-19.51,1.6a55.78,55.78,0,0,0-21.59,1,98,98,0,0,1-16.69,1.92C155.37,371.23,147.57,371.22,139.31,371.4ZM478.87,261.7c-4.17,2.16-3.77,5.51-4,8.41-.24,3.8-.08,7.61-.09,11.42q-.06,19.89-.08,39.77a14.13,14.13,0,0,0,.42,4.27c4.14,12.84,1.58,24.56-5.63,35.6a6.23,6.23,0,0,0-1,3.37c.44,12.69,1,25.39,1.52,38.08.07,1.79,0,3.59,0,5.57l5.44,1.9V398.62h1.25v11.93L489.18,417v-8a9.27,9.27,0,0,1,1.57,5.07c.25,4.93.21,4.93,5.72,6.33-.36-4.44-1-8.75-1-13.07-.39-20.7-.74-41.4-.93-62.1-.19-20.87-.12-41.74-.3-62.61,0-5.25-.52-10.5-.93-15.74-.14-1.88-.6-3.78-2.89-4.4.29,7.07.57,13.87.85,20.68l-1.55,0c0-2.06.1-4.13,0-6.19-.24-4.16-.45-8.32-.94-12.45-.41-3.47-3.23-5.2-6.21-3.57-1.25.68-2.27,2.81-2.38,4.36-.32,4.44-.12,8.91-.12,13.37h-1.15ZM125,307.85c.51-12.94,1-25.16,1.46-37.21-6.89-1.84-12.77-.53-18.6,2.19-6.39,17.48-14,23.94-24.83,21.61,2.69-1.14,4.46-1.78,6.13-2.62a13.37,13.37,0,0,0,3.47-2.28c2-2.05,3.86-4.3,5.79-6.45a20.79,20.79,0,0,0,5.31-10.85c-3.82.88-6.36,2.11-7.81,5.24a43,43,0,0,1-3.63,6.68c-1,1.4-2.45,3.1-3.95,3.4a66.56,66.56,0,0,1-14,1.6c-2.39,0-4.22.22-5.94,1.67-4.1,3.48-8.18,7-12.28,10.48h57.37c-19.73,3.09-39.71.31-59.75,2.51v8.05H66.13c-3.87,2.88-8.25,1.93-12.88,2.49.16,2,.32,3.89.51,6.23,8,.27,15.53.74,23.11.73,8.52,0,17-.7,25.56-.65,7.07,0,14.13.73,21.2,1.08a8,8,0,0,0,2.14-.55l-.24-4.28H110.09l0-1.2,15.58-1.3c-.11-1.74-.2-3.11-.26-4l-59.81-1.28a14.43,14.43,0,0,1,6.81-1.74q10.86-.17,21.73,0a39.32,39.32,0,0,1,5.88.78C108.28,309.52,116.53,308.83,125,307.85ZM522.67,241a64.71,64.71,0,0,1,.72,7.35c0,.84-1,1.68-1.51,2.52-.83-.77-2.43-1.61-2.37-2.3.44-5-3.38-8.2-4.85-12.91l-7.48,1.26c-.39,11.51,1.43,22.56-2.5,33.28,2.51-1.43,5.17-2.37,5.3-5.57.26-6.49.47-13,.8-19.47a7.67,7.67,0,0,1,1-2.35l1.07.24c-.4,7-.8,14-1.22,21.39,3-1.49,5.48-2.83,8.06-4.05,2.3-1.09,5.06-1.33,6.63.56,3.09,3.73,6.36,7.64,8.14,12,1.94,4.78,2.27,10.2,3.31,15.34.28,1.41.21,3.06.94,4.19,3.13,4.86,4.27,10.37,5.43,15.86.48,2.26,1.65,3.89,3.82,4,5.39.28,7.84,3.93,10,8,.6,1.11,1.32,2.14,2.17,3.5,1.75,0,3.56-.11,5.36,0s3.47.51,5.2.78c0,.4-.08.8-.11,1.2l-8.37,1.43c.06.41.11.82.17,1.23,5.1.95,10.18-.87,15.4-.36-2.74-9.36-4.24-10.6-13-11.09l-7-.37c4.1-2.92,8.65-.82,13.16-2-1.8-3.66-3.53-6.84-4.94-10.14-3.25-7.64-6.75-15.22-9.36-23.09-1.31-4-.69-8.55-3.68-11.86l-8.66-1.11c-.09,1.57,1.59,3.4-.73,4.93-3.19-4.6-6.07-8.93-4.89-14.88.39-1.93-.5-4.17-1-6.22-.45-1.74-1.72-3.38-1.77-5.09-.12-3.88-2.06-5.57-5.65-5.85C528,241.27,525.65,241.14,522.67,241ZM176.23,160.18c-1.26-1.91-2.3-3.59-3.44-5.21-4.76-6.75-8.17-8.27-14.49-1.48-6,6.41-14.1,6.5-21.21,1.25-2.45-1.8-4.47-4.19-6.84-6.45-.9,1-2.05,2.12-3.06,3.36-6.11,7.49-13.21,8-20.43,2.41-2.93-2.25-6.52-3.63-9.6-5.29-6.75,6.66-8.89,9.83-10.88,15.68,2,1.66,4.37,2.9,5.73,4.84,2.49,3.56,4.23,7.55,4.07,12.13-.12,3.26.13,6.54.07,9.8-.28,13.32,4.44,24.84,12.6,35.1a29.58,29.58,0,0,0,19.47,11c14.05,1.86,27.65-3.23,35-17.35,6.14-11.78,7.51-24.22,6.52-37C169.1,174.56,170.64,167.21,176.23,160.18ZM250,342.74v25.61c5.35-1.05,10.49-1.91,15.55-3.12a25.69,25.69,0,0,0,7.48-2.91c10.26-6.32,16.88-15.73,21.68-26.55,1-2.23,1.79-4.54,2.81-7.17H262.85C260.52,340.82,259.9,341.5,250,342.74Zm57.76,25c-3.2,1.19-4.48,3.58-5.33,6-3.07,8.89-6.51,17.71-8.74,26.81-3.45,14.06-6,28.34-9,42.52-.91,4.37-1.89,8.73-3,13.73l19.63,1.84c.54-12.61,1.26-24.7,1.53-36.8.33-14.49.53-29,3.32-43.27C307,375,307.28,371.33,307.78,367.71ZM138.68,271.6c-.05,11.6-.89,22.89.33,34.11h25.1c2.53-4.7,8.33-7.92,10-14.32-1.49-.42-2.5-.81-3.56-1-5.21-.84-8.47-3.58-9.64-8.93-.35-1.62-1.75-3.06-2.81-4.48s-2.41-2.68-3.46-4.12c-2.18-3-2.71-3.16-6.9-1.75.17.31.28.79.53.89,4.09,1.54,5.89,4.41,5.59,8.82-.14,2.08.94,3.6,2.87,4.85s3.23,3.15,5,4.93c-3.28,1.55-4.28-1.51-6.19-1.91-4.4-.94-4.87-4.25-5.35-7.74-.17-1.22-.1-2.92-.85-3.53C146.33,275,143.4,272.18,138.68,271.6Zm312.55,38.87a5.06,5.06,0,0,0-3.5,5.63c.65,8.1,1.06,16.27,2.56,24.23a20.15,20.15,0,0,0,11.26,14.55c1.88.95,3.59,2.22,5.71,3.56,5.29-9.65,6.51-19.55,5.15-29.9-9.12-1.21-10.12-2.2-11.88-11-.34-1.66-.88-3.29-1.33-4.93l-1.32.23q.62,9.56,1.22,19.13A39.86,39.86,0,0,1,457,321c-.29-3.8.05-7.75-3.07-11.65a113.55,113.55,0,0,0,1.7,28.63C451.4,329.48,452.12,320.18,451.23,310.47Zm-130.75-35c-2.3,3.55-4.23,6.6-6.25,9.6-.8,1.18-1.6,2.85-2.75,3.22-2.34.76-3.38,2.38-4.57,4.26-1.9,3-6.18,4.76-10.33,4.06L305.3,290c-10.76-.41-11.4,0-13.72,8.66l2.72,3.23H311l0,.71L295.74,304l7.18,6.21,13.42-8.6a6.54,6.54,0,0,1-.93-1.6,3.35,3.35,0,0,1,.25-1.35c3.36-.78,7.46,1.31,9.25-2.45-3.73,0-7.75-.42-11.63.12s-7.52,2-12.44,3.4c4.81-4.1,9.55-4.79,14.33-5.32a110.94,110.94,0,0,1,11.33-1.05c3.57,0,5.62-1.86,7.36-4.57s3.43-5.3,3.54-8.75c-5.2-.07-8.23,2.73-11,6-1.32,1.54-2.33,3.49-5.05,3.21,2-4.13,3.81-7.92,5.83-12.1Zm192.15,19.39c-4.79,2.06-5.5,5.55-6.74,8.7-1.51,3.83-2.25,8.19-6.67,9.61v13.57l5.23-2.91c-3.35,3.77-8.17,6.43-5.71,13,7.11-2.31,13.19-5.71,16.12-13.18,3-7.68,3.14-15.69,2.61-23.87-.62,1.92-1.25,3.84-1.87,5.76l-1-.24c.64-3.41,1.27-6.83,1.93-10.4-2.52-.18-2.72,1.61-3.06,3.06-1,4.4-1.9,8.84-3,13.23-.54,2.11-.87,4.52-3.51,5.77C508.8,309.73,510.58,302.84,512.63,294.91ZM242.2,370.25c0-4.86-.31-9.75.09-14.58.38-4.65-.55-9.47,1.41-14,1.3,9.17-1.71,18.51,1.17,27.59a2.83,2.83,0,0,0,1.06-1.94c.58-17.21,1.08-34.42,1.7-51.63.15-4-3.47-5.45-5.57-8.32q-.65,6.35-1.31,12.69l-.52,0c-.2-2.78-.39-5.57-.59-8.44C236.88,322.2,238,361.21,242.2,370.25Zm-79.28-63.14c-5.11.35-8.86.71-12.63.84s-7.45,0-11.63,0c.23,2.26.38,3.73.52,5.06l18.89,1.11ZM305.34,437.19l9.75-1.44V425.08H306C305.77,429.18,305.57,432.85,305.34,437.19Zm-166.65-121c.21,2.51.35,4.23.52,6.35h7.92c6.09,0,6.56-.38,8.47-6.35ZM225,324.32c-2.4,4.5,1.83,9.12-1.85,13.26.89,5.14,6.28,8.95,12.26,8.41,0-1.84,1.09-4-1.78-4.81-3.56-1-4.47-3.79-5.33-6.86C227.37,330.94,226.13,327.65,225,324.32Zm245.88-49.9a35.29,35.29,0,0,0-4.88,1.09,3.28,3.28,0,0,0-2.1,4.37,17.09,17.09,0,0,0,7,9.17ZM312.64,413.25c-.17-1.87-.29-3.21-.43-4.87l-6.42.33c.12,2,.21,3.48.31,5.25ZM235.4,338.93v-6.7l-5.26-.93C231.78,334.51,230.45,338.49,235.4,338.93ZM313.62,397l-7-1C308.25,399.41,308.67,399.49,313.62,397ZM502.43,303.1c-5.15.71-4,3.17-2.74,5.73C500.45,307.24,501.2,305.66,502.43,303.1Zm-35.54,19.59-.18.93c1.26.3,2.52.65,3.8.84.15,0,.44-.77.86-1.56ZM311.41,389.25c-2.16-1.37-2.16-1.37-4.17,0Zm-59.35-62.83c-2.06.87-2.06.87-1.41,3.55C251.25,328.45,251.66,327.44,252.06,326.42Zm56.83,54.67.87.27a22.73,22.73,0,0,0,.94-2.36,9,9,0,0,0-1.3-.59Z"/><path d="M509.61,396c1.63-1.21,2.42-2.18,3.38-2.42a17.32,17.32,0,0,1,4.33-.16,204.59,204.59,0,0,0,34-2.91c7.84-1.22,15.84-1.33,23.77-1.87a24.77,24.77,0,0,1,4.14.55c-1.66,1-2.4,1.84-3.26,2-8.15,1.52-16.13,3.83-24.53,4.08-12.67.38-25.32,1.31-38,1.92C512.56,397.21,511.58,396.6,509.61,396Z"/><path d="M499.65,354c1.48-1,2.22-1.9,3.06-2,12.57-1.63,25.09-3.71,37.89-2,5.9.81,11.94.56,17.91.82,1,0,2.1.2,3.17.31a4.19,4.19,0,0,1-.18.73c-.07.15-.18.35-.32.39a15.63,15.63,0,0,1-3.12.71q-28,1.14-56,2.15C501.65,355.19,501.18,354.76,499.65,354Z"/><path d="M252.22,331.67l3.28-1.62-1.84,3.84-1-.23c-.07-.73-.15-1.46-.22-2.19Z"/><path d="M312.76,315c10.09,0,20.18.21,30.26-.06,11.21-.31,22.41-1.2,33.62-1.56,6.49-.21,13,.1,19.49.21,4.71.08,9.42.25,14.13.31s9.41,0,14.64,0c-1.33,2.58-3.14,1.82-4.54,1.8-13-.19-26.07-.73-39.09-.63-9.41.06-18.81,1-28.22,1.4-6.15.24-12.32.12-18.48.22-5.07.09-10.13.34-15.2.39-2.24,0-4.48-.27-6.72-.42C312.69,316.06,312.72,315.51,312.76,315Z"/><path d="M352.88,282c-.45,5.81,1.42,11.22-4.59,14.49-1.57.85-2.59,2.7-3.57,4.71,21.58-1.38,42.88-3,64.23-1.25l-65.07,3c-1.82-2.4-.44-4,.82-5.5a13.23,13.23,0,0,1,3.17-2.95c2.67-1.62,3.48-3.9,3.36-6.88C351.16,286.05,350.58,284.13,352.88,282Z"/><path d="M412,270.09q-1-20.8-1.93-41.6a19,19,0,0,1,.27-2.7c.28-2.89.55-5.79.84-8.85,2.38.81,3.11,3.09,3.06,5.66-.15,9.39-.45,18.78-.59,28.17-.1,6.48,0,13,0,19.44Z"/><path d="M356.65,295c16.49-2.2,32.53-4.07,48.91-3.42-1.8.52-3.57,1.38-5.4,1.51-13.71,1-27.43,1.91-41.14,2.77C358.25,295.88,357.44,295.27,356.65,295Z"/><path d="M350.65,228.79A174.77,174.77,0,0,1,347.89,265c-.64-1.59-1-2-.93-2.41,1.17-6.25.21-12.52.27-18.79a68.93,68.93,0,0,1,1.32-11.24C348.79,231.24,349.92,230.05,350.65,228.79Z"/><path d="M388,235.2c-.3-.41-1-.94-1-1.43.23-4.67-1.1-9.81,4.09-13,1.09-.68,1.66-2.21,2.46-3.33,3.5,4.16,3.37,5.1-.63,8.81a10.73,10.73,0,0,0-2.21,3.58c-.73,1.63-1.22,3.37-1.84,5.06C388.86,235,388.59,235,388,235.2Z"/><path d="M443.17,252.16a18,18,0,0,1-.67-3c-.2-6.63-.2-13.27-.59-19.88-.09-1.49-1.46-2.91-2.36-4.59a2.84,2.84,0,0,1,4.06,2.16c1.39,7.92,3.43,15.87,1.08,24C444.61,251.13,444.18,251.31,443.17,252.16Z"/><path d="M387,276.1c-2.63-5.42-2.33-26.42,0-31.08Z"/><path d="M424.4,244.18c.26,3.77,2.12,6.07,5.19,7.72a3.83,3.83,0,0,1,1.39,2.7c.39,4,.59,7.91.79,11.87,0,.4-.41.83-.85,1.65-2.06-2.52-2-5.16-2-7.77,0-3.62,0-7-4-9.2C422.29,249.74,422.24,246.82,424.4,244.18Z"/><path d="M404.49,264.54c-3.15-9.9-.16-20,0-30.09Z"/><path d="M426.93,297.91c6.07-2.42,12.42-1.13,18.72-1C439.58,299.13,433.21,297.55,426.93,297.91Z"/><path d="M414.38,294c-1.93-4.55-2.34-9.55-.54-16.77q.82,8.32,1.66,16.66Z"/><path d="M343.52,310.57H319.09c8-2.24,16.18-1.39,24.31-1.48Z"/><path d="M373.62,217.33l5.4-5.43C380,216.28,379.54,216.8,373.62,217.33Z"/><path d="M404,280.08v-7.71l.58,0V280Z"/><path d="M231,311.24a224.93,224.93,0,0,1-58.31,0H231Z"/><path d="M183.2,319.5c15-.59,30-1.21,44.93-1.73,2.19-.07,4.64-.46,7,2.55-17.87-1-34.81,1.71-51.79.33Z"/><path d="M253.6,309.8c5.27-3,31.09-2.71,38,.65-6.61,2.32-12.78.23-18.91,0S260.09,310,253.6,309.8Z"/><path d="M207.48,284.05c3.75,1.46,7.19,2.11,7.52,6.81.09,1.25,1.58,2.68,2.79,3.52,2.33,1.65,5,2.79,7.33,4.46.75.54.76,2.11,1.1,3.21-1.11,0-2.42.47-3.31,0a63.4,63.4,0,0,1-7.42-4.35c-1.16-.78-2.57-1.8-2.93-3-1-3.22-1.76-6.39-5-8.2C207.24,286.39,207.48,285.29,207.48,284.05Z"/><path d="M259.43,278.34c-2.31-10.95-1.87-22-1.33-33.13,0-.46,1.22-.87,2.24-1.55C258.88,255.56,262.63,266.94,259.43,278.34Z"/><path d="M180.39,303.92c5.4-2.08,35.06-1.19,39.15,1.2Z"/><path d="M200.43,219.19c1.37,7.89,2.44,15.79,1.11,23.79l-1.17.25c-.5-1-1.41-2-1.43-3.08-.13-7-.06-14-.06-21Z"/><path d="M267.16,282.07c-1.61-4.9-2.1-17.56-1-20.44C268.76,264.83,269.36,274.49,267.16,282.07Z"/><path d="M212.61,247.59v24.66C210.46,267,210.19,252.06,212.61,247.59Z"/><path d="M269.85,316.37c7.22.94,14.31-3.05,22.37-1.05-3.88,2.91-7.73,1.37-11.25,1.84C277.29,317.65,273.55,318.41,269.85,316.37Z"/><path d="M201.16,284.34V254.58l.7,0v29.57Z"/><path d="M186.69,266.19l-2.17,24.4-1-.07c.31-4.13.36-8.3,1-12.39S183.56,269.85,186.69,266.19Z"/><path d="M201.09,295.64c-7-1.58-14.08,1.4-21.09-.2v-1.1H201.2C201.17,294.78,201.13,295.21,201.09,295.64Z"/><path d="M275.41,267.35c1.26,7-.94,12.62-.45,18.32C273.25,282,273.42,273.89,275.41,267.35Z"/><path d="M168.09,317.12c3.2.79,6.71.33,9.42,3.09l-10.1-1.95Z"/><path d="M202.37,203.82c-.91,2.45-1.75,4.7-2.91,7.8C198.7,205.15,198.7,205.15,202.37,203.82Z"/><path d="M287.54,301.23l-5.69.51,0-1.27c1.9.27,3.8.53,5.73.82Z"/><path d="M377.88,357.1a28.67,28.67,0,0,1,4.89-1.16c13.93-.82,27.86-1.63,41.8-2.21,2.83-.11,5.69.94,8.57,1.2,4.13.38,8.29.71,12.44.71,3.3,0,6.5-.13,9.75,3.18-4.11.7-7.55,1.55-11,1.8a32.37,32.37,0,0,1-9.74-.39c-10.93-2.63-22-1.82-33-2-7.78-.14-15.57,0-23.36,0C378.06,357.83,378,357.47,377.88,357.1Z"/><path d="M332.28,341.39c5.36,0,9.43,0,13.5,0s8.3.07,12.44-.12c8.26-.37,16.5-.67,25,2.73a15.23,15.23,0,0,1-3.52,1c-13.18-.14-26.36-.36-39.53-.57a17.07,17.07,0,0,1-4.31-.27C334.91,343.84,334.12,342.83,332.28,341.39Z"/><path d="M418.75,379.41c11.75-1.63,23.48-3.71,35.54-1.48-5.24,4-11.59,2-17.36,2.9s-12.05.2-18.09.2Z"/><path d="M489.28,291.05c1.61,9.88,2,57.2.66,62.45C488.64,350,488,300,489.28,291.05Z"/><path d="M474.06,387.9V363.09c1.7,2.62,2.4,16.9,1.17,24.83Z"/><path d="M489.48,363.18v34.43C488.49,386.14,488,374.67,489.48,363.18Z"/><path d="M482.34,327.19q-.43-7.4-.86-14.79l1.41-.09c1.35,4.83.05,9.86,1,14.71Z"/><path d="M481.13,361.35V341H482v20.42Z"/><path d="M481.9,385.83a31.58,31.58,0,0,1,.27-15.62l1,15.57Z"/><path d="M485.77,275.22q-.52-6.06-1.06-12.12C487.21,266.87,486.77,271,485.77,275.22Z"/><path d="M482.42,407.6V401l.69,0v6.91Z"/><ellipse cx="479.49" cy="296.99" rx="0.51" ry="5.43"/><path d="M99.68,317.65H59.91C64.72,315,87.42,314.71,99.68,317.65Z"/><path d="M115.66,292.19c-3-4.64-1.94-13.44,2.26-18.84,1.42,3.5-.41,6.41-.77,9.4S118,289.18,115.66,292.19Z"/><path d="M121,285.4l1.63-8.84,1.31.24-1.7,8.82Z"/><path d="M549.71,295.44c-2.44-1.06-2.68-3-2.78-5-.29-5.67.66-10.56,2.78-12.91Z"/><path d="M559.43,309.64a13.45,13.45,0,0,1-10.91-1.16H559.6C559.54,308.87,559.49,309.25,559.43,309.64Z"/><path d="M532.06,251.13q.21,3.21.44,6.43l-1.16.14c-.3-2.11-.61-4.22-.91-6.33Z"/><path d="M165.64,176c3.34,15.75.72,30.64-8.65,43.78-6.65,9.33-18.35,14.89-30.58,11.19a31.91,31.91,0,0,1-17-11.71c-6.64-8.62-9.25-18.33-10-28.78-.34-4.61-1.61-9.31.09-13.55Zm-35.49,16.52c-3.41-3.73-4.86-4-8.12-1.85-5.82,3.82-8.9,13.81-6.32,20.36,1.57,4,4.72,5.82,8.68,6.48,3.79.64,7.09-1.34,9.21-5.26a8.31,8.31,0,0,0-1.11-9.57c-2.68-3.08-5.11-3.5-9.62-1.71a4.65,4.65,0,0,1-1.46,0C122.76,196.58,126.85,195.22,130.15,192.51Zm21.36-3c-2.61-1.94-4.4-1.08-5.88.34-4.45,4.26-7.59,9.26-7.73,15.65a12.37,12.37,0,0,0,3.77,9.33,8.45,8.45,0,0,0,9.59,1.83c3.59-1.49,5.41-4.76,5.85-8.55a7.58,7.58,0,0,0-5.14-8.12c-2.39-.7-5.15-.13-7.94-.13C144.73,195.45,149.14,193.38,151.51,189.46ZM136,186.87v1.29c1.88.73,3.93,1.1,5.5-.77,2-2.33-.69-3.65-1.59-4.87l2.15-3.39c-3.61-.56-5.31.68-6.28,3.62l3.87,3.18Zm-7.61-7.49c-2.19,2.89-1.61,5.22,0,7.25,1.08,1.32,2.59.9,3.78-.26,1.69-1.66,1.9-4.06.39-6.6l-2.05,4C129.76,182.2,129.18,181,128.38,179.38Z"/><path d="M91.32,163.36a14.76,14.76,0,0,1,.5-2.31c3.63-9,4.83-9.14,11.86-4.37,2.24,1.52,4.72,2.68,7,4.14a8.88,8.88,0,0,0,9.3.6,46,46,0,0,0,7-4.15c2.67-2,5.18-2.38,8-.5,1.51,1,3.14,1.83,4.65,2.83,5.05,3.36,10.14,3.48,15.33.32,2.33-1.41,4.78-2.62,7.06-4.08,3.78-2.42,4.86-2.37,7.81.84.86.93,1.66,1.92,2.67,3.1-2.58,6.07-6.23,10.72-13.66,11.06-6.16.28-12.3,1.22-18.44,1.19-12.51-.05-25-.66-37.54-.8a7.22,7.22,0,0,1-6.12-2.65A73.87,73.87,0,0,0,91.32,163.36Z"/><path d="M545,323c-2.21.57-4.41,1.52-6.64,1.63-4.37.21-8.81.35-13-1.62H545Z"/><path d="M146.45,301.14c-3.73-6.48-1.27-13.2-1.24-19.8l1.24-.07Z"/><path d="M466.3,352c-6.74,1.38-12.84-4.37-13.9-13.53a48.13,48.13,0,0,0,2.94,5.55,19.43,19.43,0,0,0,4.32,4.79C461.5,350.1,463.79,350.8,466.3,352Z"/><path d="M468.64,335.83c-3.9-1.06-5.48-3.71-5.12-7.68Z"/><path d="M464.53,343.68c-2.26-.89-3.93-2.26-4.14-6.21l4.82,5.34Z"/><path d="M513.73,315.36c-.63,5.83-2.71,10.92-7.56,14.59Z"/><path d="M245.09,316v18.45C242.12,328.33,245.22,322.16,245.09,316Z"/><path d="M240.19,350.29v-20l.93-.09c0,2.06.13,4.12.12,6.17,0,2.36-.13,4.72-.16,7.08s0,4.66,0,7Z"/><path d="M233.82,343.86c-3.43.08-5.7-1.36-6.21-4.93Z"/><path d="M121.07,210.41c1.91-1.83,3.2-3.54,4.91-4.47.85-.46,2.81.2,3.64,1,.53.52.26,2.41-.26,3.35C127.91,212.9,125.9,213,121.07,210.41Z"/><path d="M144.1,211c.84-2.29,1.06-4,2-5.08a4.5,4.5,0,0,1,3.64-1.5,3.79,3.79,0,0,1,2.06,3.13,5.36,5.36,0,0,1-2.48,3.63C148.16,211.73,146.4,211.12,144.1,211Z"/></svg>