<svg xmlns="http://www.w3.org/2000/svg" width="839.034" height="660.498" viewBox="0 0 839.034 660.498">
  <g id="vision" transform="translate(0 -0.001)">
    <g id="background" transform="translate(0 24.085)">
      <g id="Group_41" data-name="Group 41" transform="translate(0 506.144)">
        <g id="Group_40" data-name="Group 40" transform="translate(0)">
          <path id="Path_29" data-name="Path 29" d="M77.79,929.942c42.14-18.8,89.979-16.371,134.181-7.033,46.748,9.883,91.738,27.1,138.91,35.107,26.133,4.426,52.811,6,79.126,1.88,1.152-.182.667-1.94-.485-1.758-48.87,7.579-97.74-4.547-144.488-17.765C240.286,927.7,194.993,913.632,147.942,914c-24.374.182-48.688,4.426-71.062,14.37-1.091.485-.182,2.062.91,1.576Z" transform="translate(-76.387 -913.989)" fill="#e8e8e8"/>
        </g>
      </g>
      <g id="Group_43" data-name="Group 43" transform="translate(236.483 505.846)">
        <g id="Group_42" data-name="Group 42">
          <path id="Path_30" data-name="Path 30" d="M467.314,945.392c57.116,1.152,112.413-14.673,168.256-24.071,16.31-2.729,32.742-4.911,49.294-6,1.152-.061,1.152-1.88,0-1.819-57.177,3.759-112.292,20.858-169.045,27.527a359.312,359.312,0,0,1-48.446,2.607.881.881,0,1,0-.061,1.758Z" transform="translate(-466.412 -913.498)" fill="#e8e8e8"/>
        </g>
      </g>
      <g id="Group_45" data-name="Group 45" transform="translate(503.221 511.708)">
        <g id="Group_44" data-name="Group 44">
          <path id="Path_31" data-name="Path 31" d="M907.466,928.825a171.4,171.4,0,0,1,61.906-1.94c18.917,2.91,37.047,9.156,54.933,15.825,17.644,6.548,35.167,13.521,53.478,18.19,18.917,4.79,38.138,6,57.662,6,23.041,0,46.263-.91,68.879,4.184,1.152.243,1.637-1.516.485-1.758-39.957-8.974-81.369.121-121.326-8.974-37.289-8.489-71.365-27.588-109.079-34.44a173.711,173.711,0,0,0-67.363,1.152c-1.213.242-.728,2,.424,1.758Z" transform="translate(-906.335 -923.166)" fill="#e8e8e8"/>
        </g>
      </g>
      <g id="Group_47" data-name="Group 47" transform="translate(159.092 250.745)">
        <g id="Group_46" data-name="Group 46" transform="translate(0)">
          <path id="Path_32" data-name="Path 32" d="M352.856,526.256c-5.214-1.576-15.461-5.881-11.641-13.157,2.728-5.214,10.853-5.639,15.886-5.457,16.977.485,33.954,1.94,50.932.546,15.946-1.334,31.165-5.881,46.687-9.519,15.765-3.759,32.439-6.488,48.324-1.88,6.973,2,13.461,5.336,20.312,7.64a48.077,48.077,0,0,0,10.126,2.3c4.123.424,8.246-.182,12.308-.364,4.184-.182,8.489-.061,12.066,2.425,3.274,2.243,6,6.488,3.88,10.429-3.032,5.7-11.884,4.123-16.977,3.032a134.361,134.361,0,0,0-45.657-2.062,138.822,138.822,0,0,0-23.829,5.578c-8.367,2.668-16.492,5.032-25.405,3.82-8.307-1.152-16.25-3.82-24.678-4.123-8.428-.364-16.8.728-25.1,1.819-16.128,2.183-33.348,4.972-48.446-2.85-1.031-.546-1.94,1.031-.909,1.576,14.127,7.337,30.074,5.639,45.353,3.638a215.066,215.066,0,0,1,24.193-2.425c8.913-.182,17.22,1.88,25.89,3.577,8.852,1.7,16.856.788,25.466-1.88,8.549-2.668,16.977-5.275,25.83-6.609a124.14,124.14,0,0,1,27.648-1.091c8.185.546,16.007,2.729,24.071,3.638,4.79.546,10.914.364,13.885-4.123,3.4-5.154-.242-11.156-4.911-14.006-7.094-4.3-15.886-1.273-23.586-1.758-8.489-.546-16.31-4.487-24.132-7.519-16.25-6.306-32.863-5.518-49.658-1.94-17.765,3.759-35.046,9.519-53.236,10.975a261.505,261.505,0,0,1-31.59.243L359.526,506a42.979,42.979,0,0,0-10.065.485c-5.154,1.031-11.035,4.062-10.671,10.186.424,6.73,8.185,9.822,13.642,11.46,1.031.242,1.516-1.516.424-1.88Z" transform="translate(-338.773 -492.767)" fill="#e8e8e8"/>
        </g>
      </g>
      <g id="Group_49" data-name="Group 49" transform="translate(603.366 28.333)">
        <g id="Group_48" data-name="Group 48" transform="translate(0)">
          <path id="Path_33" data-name="Path 33" d="M1088.78,158.176c-5.214-.728-13.764-2.607-15.279-8.549-2.183-8.246,9.58-10.853,15.279-11.884,16.674-2.85,33.773-.243,50.568-.243,33.287-.061,66.09-6.366,99.2-8.731,16.553-1.213,33.227-1.395,49.719.728a71.477,71.477,0,0,1,11.338,1.94,10.716,10.716,0,0,1,4.366,2.243c2.789,2.729.061,5.214-2.486,6.548-6.548,3.456-14.006,4.851-21.343,5.154-14.673.667-29.286-2.365-43.959-1.819a64.954,64.954,0,0,0-20.069,3.759c-7.579,2.789-14.613,6.73-22.252,9.337a85.184,85.184,0,0,1-27.588,4.547c-9.519,0-18.917-1.455-28.316-2.547a230.813,230.813,0,0,0-57.116.424c-1.152.182-1.152,2,0,1.819a227.425,227.425,0,0,1,55.964-.546c9.216,1.031,18.432,2.486,27.77,2.668a86.973,86.973,0,0,0,25.587-3.274c8.489-2.425,16.25-6.609,24.435-9.883a65.888,65.888,0,0,1,24.617-4.547c15.643-.121,31.347,3.4,46.99,1.334a50.7,50.7,0,0,0,11.156-2.668c2.789-1.031,6.548-2.3,8.549-4.669,3.759-4.547-1.7-8.549-5.76-9.7-8-2.365-17.038-2.789-25.345-3.274a252.578,252.578,0,0,0-27.1-.061c-36.562,1.758-72.7,9.4-109.382,9.277-10.429,0-20.858-.97-31.287-1.031-8.852-.061-18.978.121-27.285,3.577-5.214,2.183-10.308,7.276-7.4,13.279,2.729,5.639,10.429,7.579,16.007,8.367,1.091.364,1.576-1.395.424-1.576Z" transform="translate(-1071.5 -125.95)" fill="#e8e8e8"/>
        </g>
      </g>
      <g id="Group_51" data-name="Group 51" transform="translate(32.902 132.001)">
        <g id="Group_50" data-name="Group 50" transform="translate(0 0)">
          <path id="Path_34" data-name="Path 34" d="M132.015,308.249C182.583,286.3,238,306.793,284.628,328.8,308.4,340.02,331.8,352.026,356.6,360.878a372.042,372.042,0,0,0,75.245,18.129c51.477,6.973,104.167,3.88,154.8-7.458,53.054-11.884,103.318-33.469,155.948-46.991a411.259,411.259,0,0,1,167.832-8.064c6.791,1.091,13.521,2.365,20.251,3.82,1.152.243,1.637-1.516.485-1.758A410.233,410.233,0,0,0,766.3,317.283c-54.327,10.793-105.441,32.863-158.737,47.233C555.839,378.462,501.815,384.1,448.4,379.068a379.254,379.254,0,0,1-78.338-15.643c-26.315-8.246-50.992-20.251-75.791-32.135-44.808-21.525-95.376-43.353-146.065-30.559a107.46,107.46,0,0,0-17.1,5.881c-1.031.546-.121,2.122.909,1.637Z" transform="translate(-130.652 -296.926)" fill="#e8e8e8"/>
        </g>
      </g>
      <g id="Group_53" data-name="Group 53" transform="translate(241.336 97.676)">
        <g id="Group_52" data-name="Group 52">
          <path id="Path_35" data-name="Path 35" d="M474.83,264.256c59.238,33.045,129.755,35.531,195.481,26.315,74.4-10.429,146.065-34.985,220.583-44.565,41.473-5.336,83.795-6,124.843,3.092,1.152.243,1.637-1.516.485-1.758-72.578-16.007-147.035-1.88-218.1,14.673-70.031,16.31-140.85,35.349-213.428,30.68-37.9-2.425-75.609-11.46-108.957-30.013-.97-.606-1.88.97-.91,1.576Z" transform="translate(-474.416 -240.315)" fill="#e8e8e8"/>
        </g>
      </g>
      <g id="Group_55" data-name="Group 55" transform="translate(63.741)">
        <g id="Group_54" data-name="Group 54">
          <path id="Path_36" data-name="Path 36" d="M182.657,87.637a244.158,244.158,0,0,1,153.28,13.582c23.586,10.247,45.717,23.586,68.879,34.682a245.215,245.215,0,0,0,73.426,22.313c29.407,3.941,59.178,3.274,88.645,1.334,1.152-.061,1.152-1.88,0-1.819-26.618,1.758-53.478,2.486-80.035-.3A244.055,244.055,0,0,1,409.667,136.2c-23.344-10.853-45.414-24.193-68.879-34.743A242.725,242.725,0,0,0,268.15,80.967a245.606,245.606,0,0,0-85.978,4.911c-1.152.243-.667,2,.485,1.758Z" transform="translate(-181.514 -79.222)" fill="#e8e8e8"/>
        </g>
      </g>
      <g id="Group_57" data-name="Group 57" transform="translate(565.276 347.13)">
        <g id="Group_56" data-name="Group 56" transform="translate(0)">
          <path id="Path_37" data-name="Path 37" d="M1024.881,680.513c-5.336-1.091-14.067-3.82-14.491-10.429-.242-4.062,3.153-7.033,6.73-8.125,4.305-1.395,8.852-.121,13.036,1.091,7.64,2.243,15.34,4.062,23.344,4.366a73.485,73.485,0,0,0,22.07-2.729c7.761-2.062,15.34-4.851,23.041-7.033a95.973,95.973,0,0,1,24.92-3.638c16.189-.242,32.2,2.668,48.324,3.335a126.45,126.45,0,0,0,23.95-1.334c8.61-1.334,17.4-3.335,26.193-2.3,6.306.728,16.431,4.972,14.37,13.1-1.819,7.094-11.884,11.1-18.068,13.1-31.044,10.065-63.058-6.67-94.527-2.243-18.129,2.547-35.228,10.186-53.539,11.642-8.367.667-16.977.121-24.92-2.85-7.276-2.789-13.824-8.852-22.131-7.4-1.152.182-.667,1.94.485,1.758,4.972-.849,9.337,1.516,13.521,3.82a55.667,55.667,0,0,0,10.49,4.608c7.579,2.3,15.7,2.607,23.586,1.88,17.341-1.637,33.651-8.489,50.811-11.278,18.917-3.032,37.532,1.334,56.207,3.82,15.219,2,31.529,2.486,45.839-3.881,5.457-2.425,12.733-6.306,14.127-12.733,1.273-5.76-3.153-10.368-7.943-12.733-7.094-3.456-15.643-2.789-23.161-1.758-9.156,1.213-18.069,3.153-27.346,3.274-18.069.3-35.895-3.4-53.9-3.456a100.823,100.823,0,0,0-25.526,3.153c-8.307,2.183-16.371,5.214-24.617,7.458a73.722,73.722,0,0,1-30.862,1.94,128.7,128.7,0,0,1-15.158-3.759c-3.759-1.091-7.822-2-11.763-1.152-5.881,1.273-11.217,6.851-8.61,13.1,2.365,5.7,9.58,8.185,15.158,9.338.97.061,1.455-1.7.364-1.94Z" transform="translate(-1008.68 -651.732)" fill="#e8e8e8"/>
        </g>
      </g>
      <g id="Group_59" data-name="Group 59" transform="translate(308.274 574.589)">
        <g id="Group_58" data-name="Group 58" transform="translate(0)">
          <path id="Path_38" data-name="Path 38" d="M585.957,1067.635a405.117,405.117,0,0,0,66.272-22.192c11.1-4.851,21.949-10.368,33.773-13.279a129.043,129.043,0,0,1,34.8-3.4c13.521.3,26.921,2.122,40.26,4.244,1.152.182,1.637-1.576.485-1.758-22.737-3.577-46.142-6.488-69-2.365-11.763,2.122-22.556,6.609-33.348,11.52-11.338,5.154-22.8,9.823-34.561,13.946a397.349,397.349,0,0,1-39.169,11.52c-1.152.242-.667,2,.485,1.758Z" transform="translate(-584.813 -1026.873)" fill="#161616"/>
        </g>
      </g>
      <g id="Group_61" data-name="Group 61" transform="translate(451.836 564.839)">
        <g id="Group_60" data-name="Group 60">
          <path id="Path_39" data-name="Path 39" d="M822.444,1023.106a117.643,117.643,0,0,0,30.074-4.547c10-2.85,19.887-6.852,30.5-5.821,5.4.485,10.671,2,15.886,3.335,5.457,1.394,10.853,2.789,16.31,4.184,10.49,2.668,20.918,5.336,31.408,8a.912.912,0,0,0,.485-1.758c-10.853-2.789-21.707-5.518-32.56-8.307-9.944-2.547-20.13-5.942-30.316-7.155-10-1.152-19.463,1.94-28.922,4.851a123.405,123.405,0,0,1-32.8,5.457.88.88,0,1,0-.061,1.758Z" transform="translate(-821.587 -1010.793)" fill="#161616"/>
        </g>
      </g>
      <g id="Group_63" data-name="Group 63" transform="translate(557.704 578.083)">
        <g id="Group_62" data-name="Group 62" transform="translate(0)">
          <path id="Path_40" data-name="Path 40" d="M997.349,1041.1c23.829-5.275,48.87-9.823,73.063-4.245,12.005,2.789,23.283,8.125,34.5,13.036,11.763,5.214,23.586,10.368,35.349,15.583,1.092.485,2-1.091.91-1.576-18.432-8.125-36.683-16.917-55.479-24.132-18.19-6.973-37.107-8.367-56.389-6.184a311.811,311.811,0,0,0-32.5,5.821c-1.091.182-.606,1.94.546,1.7Z" transform="translate(-996.191 -1032.636)" fill="#161616"/>
        </g>
      </g>
      <g id="Group_65" data-name="Group 65" transform="translate(342.289 627.98)">
        <g id="Group_64" data-name="Group 64" transform="translate(0)">
          <path id="Path_41" data-name="Path 41" d="M642.057,1123.339c6.245-1.091,12.551-2.182,18.8-3.274s12.551-2.486,18.857-3.153c5.821-.606,11.763.424,17.523.97,6.366.667,12.794,1.273,19.16,1.94,1.152.121,1.152-1.7,0-1.819-6.366-.667-12.794-1.273-19.16-1.94-6.185-.606-12.43-1.637-18.675-.849-12.369,1.516-24.678,4.244-36.986,6.366-1.152.243-.667,2,.485,1.758Z" transform="translate(-640.914 -1114.929)" fill="#161616"/>
        </g>
      </g>
    </g>
    <g id="details" transform="translate(107.548 0.001)">
      <ellipse id="Ellipse_2" data-name="Ellipse 2" cx="7.518" cy="7.518" rx="7.518" ry="7.518" transform="translate(60.898 371.983)" fill="#ec615b"/>
      <ellipse id="Ellipse_3" data-name="Ellipse 3" cx="3.941" cy="3.941" rx="3.941" ry="3.941" transform="translate(84.788 395.63)" fill="#ec615b"/>
      <ellipse id="Ellipse_4" data-name="Ellipse 4" cx="9.277" cy="9.277" rx="9.277" ry="9.277" transform="translate(502.306)" fill="#ec615b"/>
      <ellipse id="Ellipse_5" data-name="Ellipse 5" cx="5.275" cy="5.275" rx="5.275" ry="5.275" transform="translate(527.893 18.493)" fill="#ec615b"/>
      <ellipse id="Ellipse_6" data-name="Ellipse 6" cx="8.792" cy="8.792" rx="8.792" ry="8.792" transform="translate(520.86 9.277)" fill="#5222d0"/>
      <ellipse id="Ellipse_7" data-name="Ellipse 7" cx="11.884" cy="11.884" rx="11.884" ry="11.884" transform="translate(496.728 455.536)" fill="#5222d0"/>
      <ellipse id="Ellipse_8" data-name="Ellipse 8" cx="7.579" cy="7.579" rx="7.579" ry="7.579" transform="translate(69.569 9.277)" fill="#5222d0"/>
      <ellipse id="Ellipse_9" data-name="Ellipse 9" cx="9.277" cy="9.277" rx="9.277" ry="9.277" transform="translate(187.803 524.172)" fill="#5222d0"/>
      <g id="Group_67" data-name="Group 67" transform="translate(261.654 344.202)">
        <g id="Group_66" data-name="Group 66">
          <path id="Path_42" data-name="Path 42" d="M687.664,631.2c-1.273-.546.182-2.789.849-3.092.788-.364,2.365.121,3.214.364,1.334.424,2.486,1.152,3.82,1.516a6.688,6.688,0,0,0,4.608-.121c4.851-2.486-.909-10.853,6.185-10.853,3.88,0,7.155,5.76,10.368,1.455a17.757,17.757,0,0,0,2.243-5.275,12.006,12.006,0,0,1,2-4.487c1.273-1.455,5.154-2.91,5.578.243.121,1.152,2,1.152,1.819,0a4.2,4.2,0,0,0-4.123-3.759c-2.668-.182-4.608,1.819-5.7,4a32.774,32.774,0,0,0-1.7,4.851c-.364,1.152-.849,3.153-1.879,3.881-1.091.728-1.94-.061-2.85-.606-2.365-1.576-5.214-2.789-8.064-1.758-2.607.97-3.638,3.214-3.517,5.881,0,.788.242,1.758.182,2.547-.424,2.789-2.3,2.91-4.244,2.486s-3.577-1.637-5.578-2c-2.122-.424-4.244.121-5.214,2.243-.788,1.819-.3,3.638,1.516,4.366,1.091.3,1.576-1.455.485-1.88Z" transform="translate(-685.299 -607.181)" fill="#5222d0"/>
        </g>
      </g>
      <g id="Group_69" data-name="Group 69" transform="translate(292.865 345.55)">
        <g id="Group_68" data-name="Group 68" transform="translate(0)">
          <path id="Path_43" data-name="Path 43" d="M739.216,634.989a4.021,4.021,0,0,1,.061-4.547c1.395-2,3.335-1.7,5.457-1.395,1.576.243,3.517.546,4.669-.849.788-.91.667-2,.97-3.032a6.986,6.986,0,0,1,2.668-3.759,7.644,7.644,0,0,1,9.095-.182.948.948,0,0,0,1.577-.667,10.847,10.847,0,0,1,12.369-9.216c1.152.182,1.637-1.576.485-1.758a12.717,12.717,0,0,0-14.673,10.974c.546-.243,1.031-.424,1.576-.667a8.988,8.988,0,0,0-8.61-1.395c-3.4,1.152-4.972,3.4-6.245,6.548-.606,1.576-1.334,2.547-3.092,2.3-.97-.121-1.88-.364-2.85-.424a5.16,5.16,0,0,0-3.7,1.213,6,6,0,0,0-1.273,7.822.9.9,0,0,0,1.516-.97Z" transform="translate(-736.775 -609.405)" fill="#5222d0"/>
        </g>
      </g>
      <g id="Group_71" data-name="Group 71" transform="translate(323.595 25.536)">
        <g id="Group_70" data-name="Group 70" transform="translate(0)">
          <path id="Path_44" data-name="Path 44" d="M789.848,95.37c-1.031-.97-.728-1.576.849-1.88.667-.91,1.395-1.091,2.183-.485,1.091.243,1.819,1.213,2.607,1.94a22.531,22.531,0,0,0,2.91,2.486,5.379,5.379,0,0,0,4.972.424c1.94-.97,2-2.91,2.668-4.729a6.142,6.142,0,0,1,10.914-1.213c.364.485,1.273.667,1.576,0,1.152-2.728,2.607-5.821,5.214-7.458s6.973-1.455,8.125,1.94c.364,1.091,2.122.606,1.758-.485-1.152-3.274-4.487-4.729-7.822-4.184-4.608.788-7.155,5.4-8.852,9.277h1.576c-2.122-3.032-5.76-4.669-9.4-3.335a7.8,7.8,0,0,0-3.82,3.032,10.506,10.506,0,0,0-1.091,2.365,7.829,7.829,0,0,1-.485,1.7,3.473,3.473,0,0,1-4.366,1.091c-2.971-1.637-5.881-6.852-10-4.729a3.369,3.369,0,0,0-.424,5.821.91.91,0,0,0,.909-1.576Z" transform="translate(-787.457 -81.615)" fill="#ec615b"/>
        </g>
      </g>
      <g id="Group_73" data-name="Group 73" transform="translate(363.083 29.287)">
        <g id="Group_72" data-name="Group 72" transform="translate(0)">
          <path id="Path_45" data-name="Path 45" d="M854.412,97.32c-.424-6.063,7.337-4.062,10.429-2.547,1.576.788,3.517,2.243,5.214.91a3.6,3.6,0,0,0,1.031-1.637c.909-2,1.516-3.456,3.941-4.184,3.759-1.091,7.4,1.273,10.429,3.214.97.606,1.88-.97.909-1.576-3.214-2-6.852-4.244-10.793-3.577A7.736,7.736,0,0,0,872,89.377c-1.576,1.152-1.88,3.153-3.456,4.123-1.516.91-2.122,0-3.638-.728-.788-.364-1.576-.728-2.425-1.031a9.059,9.059,0,0,0-4.911-.424c-2.85.667-5.154,2.971-4.972,6,.061,1.152,1.88,1.152,1.819,0Z" transform="translate(-852.583 -87.802)" fill="#ec615b"/>
        </g>
      </g>
      <g id="Group_75" data-name="Group 75" transform="translate(538.028 279.335)">
        <g id="Group_74" data-name="Group 74" transform="translate(0)">
          <path id="Path_46" data-name="Path 46" d="M1143.471,510.81c-4-8.792,11.156-12.672,12.187-3.456a6.551,6.551,0,0,1-4.487,7.215,7.037,7.037,0,0,1-8.246-4.851.912.912,0,0,0-1.758.485,8.868,8.868,0,0,0,10.49,6.124c4.426-1.152,6.609-6.063,5.578-10.308-1.091-4.487-5.76-6.67-10.065-5.518a8.067,8.067,0,0,0-5.275,11.338c.485.97,2.062,0,1.577-1.031Z" transform="translate(-1141.116 -500.199)" fill="#ec615b"/>
        </g>
      </g>
      <g id="Group_77" data-name="Group 77" transform="translate(546.408 286.834)">
        <g id="Group_76" data-name="Group 76" transform="translate(0)">
          <path id="Path_47" data-name="Path 47" d="M1160.189,522.652c-3.274-.3-4.487-4.669-2.243-6.852a5.5,5.5,0,0,1,7.094-.182c2.062,1.637,4.063,6.427,1.758,8.731-3.032,3.032-6.73-1.88-8.185-4.062-.667-.97-2.243-.061-1.577.91,2.122,3.274,6.973,8.428,11.035,4.426,3.214-3.153.91-9.519-2.243-11.763-3.214-2.3-8.489-1.516-10.308,2.243a5.917,5.917,0,0,0,4.729,8.367c1.091.121,1.091-1.7-.061-1.819Z" transform="translate(-1154.937 -512.566)" fill="#ec615b"/>
        </g>
      </g>
      <g id="Group_79" data-name="Group 79" transform="translate(0 213.882)">
        <g id="Group_78" data-name="Group 78" transform="translate(0)">
          <path id="Path_48" data-name="Path 48" d="M254.634,399.071c2.425-.121,3.7-1.758,5.4-3.274,4-3.577,8.61-.182,11.156,3.335,2.425,3.335,5.942,5.7,9.034,1.7,1.455-1.88,2.183-4.669,4.184-6,4.062-2.728,7.518,2.668,10.065,5.033,2.91,2.668,8.913,3.881,10.247-1.091a.912.912,0,0,0-1.758-.485c-.667,2.607-3.82,2.547-5.7,1.455a19.032,19.032,0,0,1-3.638-3.335c-1.7-1.819-3.577-3.577-6.124-4.062-4.184-.728-6.063,3.032-7.943,6.063a6.18,6.18,0,0,1-2,2.486c-2.183,1.152-3.759-1.152-4.911-2.668a13.763,13.763,0,0,0-5.457-4.911,7.746,7.746,0,0,0-6.245-.364c-2.3.97-3.759,4.244-6.366,4.366a.881.881,0,0,0,.061,1.758Z" transform="translate(-253.762 -392.249)" fill="#ec615b"/>
        </g>
      </g>
      <g id="Group_81" data-name="Group 81" transform="translate(43.036 206.087)">
        <g id="Group_80" data-name="Group 80" transform="translate(0)">
          <path id="Path_49" data-name="Path 49" d="M324.959,381.519c2.547,3.032,7.094,7.094,11.1,3.759.97-.849,1.516-2.062,2.547-2.91a5.871,5.871,0,0,1,5.275-.849c3.82,1.031,6.063,4.669,8.064,7.761a.91.91,0,0,0,1.576,0c2.607-5.7,9.58-7.094,15.037-4.911,1.091.424,1.576-1.334.485-1.758-6.124-2.486-14.188-.667-17.1,5.7h1.576c-2.728-4.244-6.185-9.095-11.884-8.913a7.224,7.224,0,0,0-5.154,2.365c-1.576,1.819-2.91,3.274-5.518,2.486-2-.606-3.456-2.486-4.79-4.062-.667-.849-1.94.424-1.213,1.334Z" transform="translate(-324.741 -379.392)" fill="#ec615b"/>
        </g>
      </g>
      <g id="Group_83" data-name="Group 83" transform="translate(147.326 258.379)">
        <g id="Group_82" data-name="Group 82" transform="translate(0)">
          <path id="Path_50" data-name="Path 50" d="M501.871,478.893c-.788-1.576-1.7-3.214-2.425-4.851-.788-1.7-.424-2.365.606-3.82,1.334-1.88,3.4-3.577,5.76-2.3a7.729,7.729,0,0,1,3.274,4.729c.849,2.971.121,7.215-3.335,8.185-2.85.788-6.548-.97-6.427-4.244a.911.911,0,0,0-1.819,0c-.121,4.062,3.941,6.609,7.7,6.185,4.608-.546,6.548-5.4,5.881-9.519-.667-4-4.366-9.1-8.974-7.215-2.243.909-3.941,3.274-4.972,5.4-.606,1.273-.485,1.334.121,2.607.97,1.94,1.94,3.881,2.91,5.76a.965.965,0,0,0,1.7-.91Z" transform="translate(-496.743 -465.636)" fill="#5222d0"/>
        </g>
      </g>
      <g id="Group_85" data-name="Group 85" transform="translate(153.305 268.774)">
        <g id="Group_84" data-name="Group 84" transform="translate(0)">
          <path id="Path_51" data-name="Path 51" d="M512.482,497.526c-2.3-2.728-6.245-8.064-2.85-11.46,2.425-2.425,6.791-1.516,8.792.91,2.062,2.486,2.486,7.337-.728,9.156-2.729,1.576-6.67.061-7.155-3.092-.182-1.152-1.94-.667-1.758.485.728,4.123,5.76,6.063,9.4,4.426,4.426-2.062,4.608-8.185,2-11.763-2.486-3.456-7.943-4.669-11.338-1.819-4.911,4.062-.667,10.732,2.425,14.37.667.97,1.94-.3,1.213-1.213Z" transform="translate(-506.603 -482.78)" fill="#ec615b"/>
        </g>
      </g>
      <g id="Group_87" data-name="Group 87" transform="translate(515.886 140.954)">
        <g id="Group_86" data-name="Group 86" transform="translate(0)">
          <path id="Path_52" data-name="Path 52" d="M1106.418,291.815c.061-5.336,7.4-3.759,10.55-3.4a12.387,12.387,0,0,0,7.64-1.395c2.668-1.395,4.851-3.577,7.458-5.093a11.671,11.671,0,0,1,5.76-1.94c2.122.061,3.456,1.334,5.336,2.122,4.365,1.758,7.155-2.3,9.883-4.972,5.4-5.275,13.1-3.092,19.4-.91,1.091.364,1.576-1.395.485-1.758-5.639-1.94-12.794-4.062-18.372-.849-2.668,1.516-4.244,4.3-6.67,6.063-3.456,2.486-6.366-1.455-10-1.516-7.822-.121-11.945,8.913-19.827,8.489-3.4-.182-6.67-1.455-9.944.061a5.516,5.516,0,0,0-3.517,5.033.91.91,0,0,0,1.819.061Z" transform="translate(-1104.597 -271.97)" fill="#5222d0"/>
        </g>
      </g>
      <g id="Group_89" data-name="Group 89" transform="translate(561.389 145.01)">
        <g id="Group_88" data-name="Group 88" transform="translate(0)">
          <path id="Path_53" data-name="Path 53" d="M1181.315,292.388a16.447,16.447,0,0,1,17.7-6.306c2.85.849,5.518,3.153,8.671,2.971,2.607-.182,4-2.3,5.76-3.941,2.85-2.607,6.548-4.729,10.55-4.608a9.566,9.566,0,0,1,6.184,2.547,4.717,4.717,0,0,0,1.94,1.273,5.2,5.2,0,0,0,3.4-.728,39.255,39.255,0,0,1,5.821-2.122,33.357,33.357,0,0,1,12.49-.667c1.152.121,1.152-1.7,0-1.819a32.98,32.98,0,0,0-11.945.485,39.949,39.949,0,0,0-5.214,1.637,7.771,7.771,0,0,1-3.517.91c-1.637,0-1.516-.243-2.607-1.091-5.154-3.941-12.066-2.122-16.735,1.576-1.273.97-2.3,2.3-3.517,3.274-2.91,2.3-5.214.849-8.185-.485a17.356,17.356,0,0,0-8-1.576,18.239,18.239,0,0,0-14.249,7.761c-.788.97.788,1.88,1.455.91Z" transform="translate(-1179.644 -278.661)" fill="#5222d0"/>
        </g>
      </g>
    </g>
    <g id="girl" transform="translate(321.045 69.768)">
      <g id="leg_right" transform="translate(163.251 251.709)">
        <path id="Path_54" data-name="Path 54" d="M944.223,969.8c1.152,7.276,2.3,14.613,3.4,21.889q-35.925,11.642-35.228,14.734c.606,2.547,19.766.667,57.48-5.457-2.183-11.52-4.3-23.04-6.488-34.561C956.956,967.492,950.589,968.643,944.223,969.8Z" transform="translate(-889.788 -725.869)"/>
        <path id="Path_55" data-name="Path 55" d="M878.36,570c-.424,8.246-1.031,20.009-1.576,34.258-.546,15.1-.849,22.98-.788,32.681,0,4.184.182,21.222,2.365,43.171,1.819,18.493,4.669,46.142,14.794,80.157a375.6,375.6,0,0,0,19.827,52.144,82.167,82.167,0,0,0,15.583.788A80.535,80.535,0,0,0,955,807.381c-1.819-5.942-4.366-14.37-7.033-24.5A617.354,617.354,0,0,1,930.08,672.412a644.267,644.267,0,0,1,.788-102.712Q904.674,569.791,878.36,570Z" transform="translate(-875.463 -569.7)" fill="#fff"/>
        <path id="Path_56" data-name="Path 56" d="M955.872,577.9c-1.152,4.366-2.668,10.671-4.3,18.311-4.244,20.191-8.61,48.992-8.186,97.68a836.632,836.632,0,0,0,10.126,121.387c3.032-.3,6.124-.667,9.338-1.152a177.041,177.041,0,0,0,18.675-3.88c-2.547-8.246-6.063-20.494-9.7-35.41A631.273,631.273,0,0,1,954.3,646.779,641.617,641.617,0,0,1,955.872,577.9Z" transform="translate(-901.983 -572.928)" fill="#606060" opacity="0.09"/>
        <g id="Group_91" data-name="Group 91" transform="translate(51.258 1.008)">
          <g id="Group_90" data-name="Group 90">
            <path id="Path_57" data-name="Path 57" d="M962.474,572.234a583.568,583.568,0,0,0,11.1,183.839q5.73,25.648,13.7,50.629c.364,1.091,2.122.606,1.758-.485A584.25,584.25,0,0,1,961.5,624.56c.121-17.462,1.091-34.985,2.789-52.387.121-1.091-1.7-1.091-1.819.061Z" transform="translate(-959.662 -571.362)" fill="#161616"/>
          </g>
        </g>
        <g id="Group_93" data-name="Group 93" transform="translate(0 55.38)">
          <g id="Group_92" data-name="Group 92">
            <path id="Path_58" data-name="Path 58" d="M875.533,661.924A409.777,409.777,0,0,0,895.906,808.9a388.077,388.077,0,0,0,15.219,38.866c.485,1.091,2.062.121,1.576-.909a407.642,407.642,0,0,1-35.106-143.4,412.491,412.491,0,0,1-.243-41.533c.061-1.213-1.758-1.152-1.819,0Z" transform="translate(-875.123 -661.037)" fill="#161616"/>
          </g>
        </g>
        <g id="Group_95" data-name="Group 95" transform="translate(36.482 236.231)">
          <g id="Group_94" data-name="Group 94">
            <path id="Path_59" data-name="Path 59" d="M935.539,965.73c2.062,2.3,6.791,1.758,9.58,1.819a81.294,81.294,0,0,0,12.733-.97c4.547-.667,9.095-1.637,13.582-2.729,2.243-.546,6.912-.667,8.064-3.153.485-1.031-1.091-2-1.576-.909-.546,1.273-3.577,1.516-4.729,1.758-1.7.424-3.335.788-5.033,1.213-3.214.728-6.366,1.394-9.58,1.88a79.914,79.914,0,0,1-10,1.031c-2.547.121-9.823.909-11.7-1.213-.849-.91-2.122.424-1.334,1.273Z" transform="translate(-935.292 -959.308)" fill="#161616"/>
          </g>
        </g>
      </g>
      <g id="leg_left" transform="translate(116.052 223.304)">
        <path id="Path_60" data-name="Path 60" d="M832.914,551.2a128.116,128.116,0,0,0-5.821,17.523c-2.122,8.185-2.668,13.1-3.88,20.251-2.243,13.218-3.759,15.461-7.033,29.953-3.456,15.522-5.033,27.467-6.245,36.986-.97,7.4-2.728,22.495-3.517,42.019-.364,8.428-.546,13.4-.364,20.252a225.064,225.064,0,0,0,5.457,44.747,219.022,219.022,0,0,0,15.946,45.9,50.73,50.73,0,0,0,12.066,4.3c6.427,1.395,14.673,3.214,22.555-.788,2.183-1.091,7.155-4.123,10.914-11.278a233.822,233.822,0,0,1-9.338-33.045c-7.033-34.318-4.487-61.482-2.729-78.58,3.274-32.317,10.793-56.571,23.707-98.407,4.366-14.067,8.246-25.466,10.914-33.045.909-6,3.032-24.011-6.609-31.529C874.812,515.3,841.888,531.855,832.914,551.2Z" transform="translate(-800.704 -522.852)" fill="#fff"/>
        <path id="Path_61" data-name="Path 61" d="M913.9,622.8a237.139,237.139,0,0,0-14.794,27.224c-6.67,14.431-16.492,39.775-21.767,90.283a561.394,561.394,0,0,0-.364,112.838c1.88.182,9.883.849,16.735-4.669a21.9,21.9,0,0,0,6.245-8.185,235.991,235.991,0,0,1-9.7-35.046c-8.61-43.292-3.214-78.1.788-102.349A358.732,358.732,0,0,1,913.9,622.8Z" transform="translate(-827.606 -562.199)" fill="#606060" opacity="0.08"/>
        <path id="Path_62" data-name="Path 62" d="M839.007,1000.731c2.062,7.4,4.123,14.855,6.185,22.252q-48.749,14.825-47.9,18.493.91,4.184,66.393-6.184c-1.152-11.884-2.3-23.708-3.4-35.592C853.134,1000,846.04,1000.367,839.007,1000.731Z" transform="translate(-797.278 -710.573)"/>
        <g id="Group_97" data-name="Group 97" transform="translate(4.618 28.457)">
          <g id="Group_96" data-name="Group 96" transform="translate(0)">
            <path id="Path_63" data-name="Path 63" d="M831.819,570.4c-6.427,16.25-9.7,33.469-13.157,50.568-3.638,17.887-7.155,35.773-9.7,53.842-4.729,33.469-6.185,67.727.3,101.075a184.322,184.322,0,0,0,17.826,51.538c.546,1.031,2.122.121,1.576-.91-32.439-61.664-22.616-133.817-9.4-199.24,3.82-18.978,7.215-38.32,14.37-56.389.364-1.091-1.395-1.576-1.819-.485Z" transform="translate(-804.894 -569.785)" fill="#161616"/>
          </g>
        </g>
        <g id="Group_99" data-name="Group 99" transform="translate(57.222 59.843)">
          <g id="Group_98" data-name="Group 98">
            <path id="Path_64" data-name="Path 64" d="M919.936,622.187c-20.312,54.145-33.894,112.353-26.011,170.379a222.642,222.642,0,0,0,11.581,46.869c.424,1.091,2.183.606,1.758-.485-20.191-54.509-16.068-114.293-.909-169.53,4.366-15.825,9.58-31.408,15.34-46.809.424-1.091-1.334-1.516-1.758-.424Z" transform="translate(-891.653 -621.55)" fill="#161616"/>
          </g>
        </g>
        <g id="Group_101" data-name="Group 101" transform="translate(26.544 276.743)">
          <g id="Group_100" data-name="Group 100">
            <path id="Path_65" data-name="Path 65" d="M841.507,988.567a45.75,45.75,0,0,0,28.073,5.457c7.943-1.091,17.159-4.729,17.947-13.885.121-1.152-1.7-1.152-1.819,0-.849,9.519-12.369,12.066-20.191,12.43a43.148,43.148,0,0,1-23.04-5.578c-1.091-.546-2,1.031-.97,1.576Z" transform="translate(-841.055 -979.275)" fill="#161616"/>
          </g>
        </g>
      </g>
      <g id="torso" transform="translate(144.26 82.148)">
        <path id="Path_66" data-name="Path 66" d="M860.292,301.539a55.108,55.108,0,0,0-6.124,8.852c-7.458,13.1-7.943,25.951-8.064,37.229-.121,16.432-.243,24.678,1.516,42.564,1.637,16.735,2.062,40.745-3.82,71.365a63.3,63.3,0,0,0,23.041,10.732c28.982,6.791,52.993-10.126,57.541-13.4-5.76-33.773-8.913-60.815-10.732-79.793-1.152-12.005-5.4-29.468-13.824-64.453-2.547-10.671-5.154-20.858-13.036-23.768C875.875,286.745,862.475,299.417,860.292,301.539Z" transform="translate(-843.8 -290.049)" fill="#ec615b"/>
        <path id="Path_67" data-name="Path 67" d="M914.2,292.8c.97,3.941,2.365,9.883,3.759,17.22a397.985,397.985,0,0,1,5.942,45.05c1.758,21.949,3.759,63.119,4.366,116.355a71.14,71.14,0,0,0,14.37-5.942,74.011,74.011,0,0,0,9.095-5.942c-.424-4.669-1.213-11.763-2.486-20.312-1.637-10.732-3.274-18.19-4.062-21.888a231.378,231.378,0,0,1-4.366-43.777c-2.486-10.55-4.366-19.039-5.639-24.678-3.517-16.007-4.548-21.889-7.215-31.59-2.668-9.762-5.457-17.523-7.215-22.192C918.565,294.255,916.383,293.528,914.2,292.8Z" transform="translate(-871.514 -291.132)" fill="#606060" opacity="0.1"/>
      </g>
      <g id="backpack" transform="translate(158.251 93.761)">
        <path id="Path_68" data-name="Path 68" d="M870.622,315.041c.546,1.091,1.455,1.455,3.456,2.425,1.7.849,3.335,1.88,5.032,2.607,5.214,2.243,11.338,12.187,12.308,13.764,3.7,6,8,13.036,10.49,23.222.667,2.668,2.183,9.58.424,32.924-1.88,23.95-4.3,27.285-2.425,39.23,1.395,8.671,3.153,19.039,11.7,24.678,7.943,5.214,17.1,3.4,18.978,3.032,11.52-2.243,18.069-11.156,24.435-19.827A86.7,86.7,0,0,0,970,403.14c.728-3.577.606-14.067.424-34.985-.243-21.585-.606-29.043-6.245-35.349a26.359,26.359,0,0,0-11.7-7.276,7.048,7.048,0,0,0-.788-5.033c-2.061-3.153-6.973-3.092-10.126-3.032-13.521.364-23.586,9.459-24.071,9.883a39.828,39.828,0,0,0-11.7,21.4,59.206,59.206,0,0,0-6.67-16.977c-1.88-3.214-4.669-6.488-10.308-13.157-4.426-5.214-6.548-7.215-9.883-8.307-.728-.242-6.245-1.88-8.064.606A4.178,4.178,0,0,0,870.622,315.041Z" transform="translate(-868.182 -309.342)" fill="#fff"/>
        <path id="Path_69" data-name="Path 69" d="M870.186,314.791c.364-.667,4.426.849,4.851,1.031,6,2.3,11.338,7.094,18.19,18.19a128.13,128.13,0,0,1,11.7,24.253c2.668-2.728,4.911-4.972,6.67-6.67a95.96,95.96,0,0,1,16.977-12.308c1.031-.606,2.3-1.334,3.214-.788,1.88,1.031-.121,6.063.424,10.732.424,3.517,2.486,8.367,10.308,13.764a4.191,4.191,0,0,1-.606,3.456c-1.7,1.88-6.063.364-8.307-.424-3.638-1.273-10.671-4.608-18.978-14.37a128.348,128.348,0,0,0-2.607,13.157,136.63,136.63,0,0,0,.606,41.23,142.678,142.678,0,0,0,8.913,31.347,35.009,35.009,0,0,0,24.859,1.031,21,21,0,0,0-7.094,5.457c-2.85,3.456-2.91,6.063-5.275,9.277-1.576,2.183-4.426,4.911-9.7,6.852a23.072,23.072,0,0,1-6.852-1.819c-8.307-3.7-12.066-11.52-13.764-15.158-2.243-4.911-5.7-14.855-2.425-48.506,1.88-19.221,3.941-25.223.788-36.2a74.474,74.474,0,0,0-8.064-17.765,71.078,71.078,0,0,0-15.765-18.8C874.249,318.368,869.823,315.579,870.186,314.791Z" transform="translate(-868.17 -311.335)" fill="#606060" opacity="0.11"/>
        <path id="Path_70" data-name="Path 70" d="M978.238,333.639a26.944,26.944,0,0,0-3.577,6.366,23.742,23.742,0,0,0-1.7,10.308c.667,9.641,7.579,15.522,8.852,16.553.849.667,1.576,1.213,2.062,1.516A50.369,50.369,0,0,0,982,379.114c-.485,6.427-.97,13.642,2.789,15.765,2.425,1.334,6.063.424,8.064-1.516.485-.485,1.88-2,2.243-8.852.424-8.125-1.273-11.52,1.152-13.885a13.489,13.489,0,0,1,4.3-2.425,23.565,23.565,0,0,1,4.3-1.334c-.667,4.972-1.152,9.4-1.516,12.975-.424,4.426-.606,6.67.91,8.064a5.222,5.222,0,0,0,5.457.728c2.3-1.031,3.032-3.881,4.3-9.58,1.031-4.487,1.88-8.246,1.334-13.339a31.264,31.264,0,0,0-1.334-6.185,30.857,30.857,0,0,0-.909-4.3c-1.031-3.517-2-4.547-2.607-6.791-.91-3.214.121-4.79.364-8.428A25.855,25.855,0,0,0,1008.8,328a8.051,8.051,0,0,0-4.123,1.334,8.827,8.827,0,0,0-3.214,3.941,15.832,15.832,0,0,0-7.7.182,16.375,16.375,0,0,0-9.4,6.973c1.576-3.456.243-6.852-1.88-7.7C980.663,331.941,978.48,333.518,978.238,333.639Z" transform="translate(-908.616 -316.602)"/>
        <g id="Group_103" data-name="Group 103" transform="translate(74.784 31.739)">
          <g id="Group_102" data-name="Group 102">
            <path id="Path_71" data-name="Path 71" d="M991.9,365.642c.606-1.152,3.638-3.7,4.669-1.576.485,1.031,2.061.121,1.576-.909a3.279,3.279,0,0,0-3.759-1.516,5.848,5.848,0,0,0-4.062,3.092c-.546,1.031,1.031,1.94,1.576.91Z" transform="translate(-990.213 -361.547)" fill="#fff"/>
          </g>
        </g>
        <g id="Group_105" data-name="Group 105" transform="translate(92.571 26.282)">
          <g id="Group_104" data-name="Group 104" transform="translate(0)">
            <path id="Path_72" data-name="Path 72" d="M1021.217,357.43a7.9,7.9,0,0,1,1.334-2.3c.606-.606,2.425-1.273,2.486.121.061,1.152,1.88,1.152,1.819,0a2.889,2.889,0,0,0-3.4-2.668c-2,.364-3.032,2.183-3.82,3.881-.485,1.091,1.091,2.062,1.577.97Z" transform="translate(-1019.549 -352.547)" fill="#fff"/>
          </g>
        </g>
        <g id="Group_107" data-name="Group 107" transform="translate(92.973 35.74)">
          <g id="Group_106" data-name="Group 106" transform="translate(0)">
            <path id="Path_73" data-name="Path 73" d="M1021.964,369.331v.182l-.3.3c-.3.182-.788,0-.728-.364,0,0,0-.182.061-.121l-.182.182h1.273l-.121-.121.061.061c-.061-.061,0-.061,0,.061.061.364-.121.606-.606.788-.182-.061-.3-.061-.485-.121-.243-.121-.182-.485-.121-.667.061-.061,0-.061-.061.061h0a.9.9,0,0,0-.3,1.273.956.956,0,0,0,1.273.3,1.931,1.931,0,0,0,.909-1.334,1.22,1.22,0,0,0-1.152-1.273,1.153,1.153,0,0,0-1.213,1.091,1.527,1.527,0,0,0,.546,1.213.935.935,0,0,0,1.273,0,1.533,1.533,0,0,0,.061-2.486,1.431,1.431,0,0,0-1.395-.061,1.412,1.412,0,0,0-.485,1.576.868.868,0,0,0,1.091.606,1.022,1.022,0,0,0,.606-1.152Z" transform="translate(-1020.213 -368.145)" fill="#fff"/>
          </g>
        </g>
        <g id="Group_109" data-name="Group 109" transform="translate(78.01 37.238)">
          <g id="Group_108" data-name="Group 108" transform="translate(0)">
            <path id="Path_74" data-name="Path 74" d="M1002.547,372.183a4,4,0,0,1-5.275-1.152c-.667-.97-2.243-.061-1.577.909a5.993,5.993,0,0,0,7.822,1.819.927.927,0,0,0-.97-1.576Z" transform="translate(-995.534 -370.616)" fill="#fff"/>
          </g>
        </g>
        <g id="Group_111" data-name="Group 111" transform="translate(80.301 42.495)">
          <g id="Group_110" data-name="Group 110" transform="translate(0)">
            <path id="Path_75" data-name="Path 75" d="M1002.7,379.537a11.91,11.91,0,0,0-3.274,3.881c-.546,1.031,1.031,1.94,1.576.91a10.537,10.537,0,0,1,3.032-3.517.935.935,0,0,0,0-1.273,1.013,1.013,0,0,0-1.334,0Z" transform="translate(-999.313 -379.287)" fill="#fff"/>
          </g>
        </g>
        <g id="Group_113" data-name="Group 113" transform="translate(96.931 30.246)">
          <g id="Group_112" data-name="Group 112">
            <path id="Path_76" data-name="Path 76" d="M1028.232,364.915a14.187,14.187,0,0,0,2.729-4.729c.364-1.091-1.395-1.576-1.758-.485a12.1,12.1,0,0,1-2.244,3.941c-.727.909.546,2.183,1.273,1.273Z" transform="translate(-1026.741 -359.085)" fill="#fff"/>
          </g>
        </g>
        <g id="Group_115" data-name="Group 115" transform="translate(97.386 36.307)">
          <g id="Group_114" data-name="Group 114">
            <path id="Path_77" data-name="Path 77" d="M1028.649,371.154c1.455-.3,3.153-.667,4.3.546.788.849,2.062-.424,1.273-1.273-1.637-1.758-4-1.455-6.124-.97-1.092.182-.606,1.94.546,1.7Z" transform="translate(-1027.491 -369.08)" fill="#fff"/>
          </g>
        </g>
        <g id="Group_117" data-name="Group 117" transform="translate(0)">
          <g id="Group_116" data-name="Group 116">
            <path id="Path_78" data-name="Path 78" d="M868.588,313.505c2.789-4.366,9.4-1.758,12.733.424,4,2.547,7.033,6.366,9.762,10.186,5.518,7.7,10.429,16.068,12.248,25.466.242,1.152,2,.667,1.758-.485-2.122-11.217-8.671-22.01-16.068-30.62-4.3-4.972-16.492-14.37-22.01-5.821-.606.909.97,1.88,1.576.849Z" transform="translate(-866.875 -309.201)" fill="#161616"/>
          </g>
        </g>
        <g id="Group_119" data-name="Group 119" transform="translate(5.019 6.715)">
          <g id="Group_118" data-name="Group 118">
            <path id="Path_79" data-name="Path 79" d="M875.606,321.988c14.552,8.185,22.737,23.526,26.86,39.169a.912.912,0,0,0,1.758-.485c-4.244-16.068-12.793-31.893-27.709-40.26a.91.91,0,0,0-.909,1.576Z" transform="translate(-875.152 -320.275)" fill="#161616"/>
          </g>
        </g>
        <g id="Group_121" data-name="Group 121" transform="translate(36.493 7.356)">
          <g id="Group_120" data-name="Group 120">
            <path id="Path_80" data-name="Path 80" d="M928.783,353.57c1.516-10.732,8.367-19.706,17.765-24.859a46.262,46.262,0,0,1,15.765-5.093c2.607-.364,5.639-.728,8.185.243,2.789,1.031,5.457,5.457,1.94,7.458-1.031.546-.121,2.122.909,1.576,3.881-2.183,2.91-7.761-.485-9.883-5.275-3.335-14.006-.97-19.4.849-13.339,4.3-24.374,15.1-26.375,29.346-.242,1.031,1.516,1.516,1.7.364Z" transform="translate(-927.062 -321.334)" fill="#161616"/>
          </g>
        </g>
        <g id="Group_123" data-name="Group 123" transform="translate(40.755 25.624)">
          <g id="Group_122" data-name="Group 122">
            <path id="Path_81" data-name="Path 81" d="M935.612,368.159a64.433,64.433,0,0,1,10.368-9.095,30.107,30.107,0,0,1,11.642-5.821c1.152-.243.667-2-.485-1.758a32.25,32.25,0,0,0-12.066,6,68.934,68.934,0,0,0-10.732,9.4c-.788.849.485,2.183,1.273,1.273Z" transform="translate(-934.091 -351.462)" fill="#161616"/>
          </g>
        </g>
        <g id="Group_125" data-name="Group 125" transform="translate(62.86 14.775)">
          <g id="Group_124" data-name="Group 124" transform="translate(0)">
            <path id="Path_82" data-name="Path 82" d="M972.217,346.381a36.22,36.22,0,0,1,4.911-8.185,7.317,7.317,0,0,1,1.273-1.455c.424-.788.97-.849,1.758-.121.97,0,1.394.364,1.394,1.213.667,1.273.728,3.456.97,4.911.242,1.152,2,.667,1.758-.485-.485-2.3-1.091-10.55-5.457-8.307-1.7.849-2.971,2.971-4.062,4.426a41.561,41.561,0,0,0-4.123,7.094c-.485,1.031,1.091,2,1.576.91Z" transform="translate(-970.549 -333.568)" fill="#161616"/>
          </g>
        </g>
        <g id="Group_127" data-name="Group 127" transform="translate(74.709 15.344)">
          <g id="Group_126" data-name="Group 126" transform="translate(0)">
            <path id="Path_83" data-name="Path 83" d="M991.612,343.658c3.092-4,9.4-9.519,14.794-6.548,1.031.546,1.94-1.031.909-1.576-6.245-3.335-13.279,2.122-17.038,6.852-.667.909.606,2.183,1.334,1.273Z" transform="translate(-990.091 -334.507)" fill="#161616"/>
          </g>
        </g>
        <g id="Group_129" data-name="Group 129" transform="translate(91.106 10.551)">
          <g id="Group_128" data-name="Group 128" transform="translate(0)">
            <path id="Path_84" data-name="Path 84" d="M1018.811,333.695c.849-1.334,4.79-6.124,6.488-4.851.909.667,1.091,3.032,1.334,4.123a29.156,29.156,0,0,1,.546,5.154c.061,1.152,1.88,1.152,1.819,0a31.749,31.749,0,0,0-.97-7.155c-.364-1.334-.667-3.881-2.243-4.3-1.455-.364-3.456,1.031-4.547,1.819a14.076,14.076,0,0,0-3.941,4.3c-.667.97.91,1.88,1.516.909Z" transform="translate(-1017.134 -326.602)" fill="#161616"/>
          </g>
        </g>
        <g id="Group_131" data-name="Group 131" transform="translate(44.36 37.829)">
          <g id="Group_130" data-name="Group 130">
            <path id="Path_85" data-name="Path 85" d="M940.318,373.112a117.664,117.664,0,0,0,13.339,11.217c4.669,3.335,9.216,5.7,15.1,5.4,1.152-.061,1.152-1.88,0-1.819-6,.3-10.429-2.365-15.1-5.76a115.806,115.806,0,0,1-12.127-10.308c-.788-.788-2.062.485-1.213,1.273Z" transform="translate(-940.037 -371.591)" fill="#161616"/>
          </g>
        </g>
        <g id="Group_133" data-name="Group 133" transform="translate(30.204 44.464)">
          <g id="Group_132" data-name="Group 132">
            <path id="Path_86" data-name="Path 86" d="M918.879,383.666c6.609,29.346-10.611,61.421,3.638,89.494,2.668,5.275,6.73,10.065,12.308,12.43,5.457,2.3,11.763,2.122,17.4.3,12.49-4,20.555-15.583,26.739-26.5a86.747,86.747,0,0,0,9.156-21.889,59.289,59.289,0,0,0,1.758-11.763c.182-4.547-.424-9.095-.243-13.642.061-1.152-1.758-1.152-1.819,0-.243,7.4.728,14.431-.728,21.767a74.165,74.165,0,0,1-6.609,18.857c-5.518,11.156-12.975,23.707-24.435,29.589-5.942,3.032-13.279,4.184-19.645,1.819-6.245-2.3-10.368-7.822-13.036-13.7-5.7-12.794-5.033-27.345-3.517-40.927,1.7-15.4,4.366-30.983.909-46.384-.424-1.031-2.183-.606-1.88.546Z" transform="translate(-916.691 -382.535)" fill="#161616"/>
          </g>
        </g>
        <g id="Group_135" data-name="Group 135" transform="translate(52.752 105.874)">
          <g id="Group_134" data-name="Group 134" transform="translate(0)">
            <path id="Path_87" data-name="Path 87" d="M960.5,484.231a53.771,53.771,0,0,0-6.609,19.16c-.182,1.152,1.576,1.637,1.758.485a52.529,52.529,0,0,1,6.427-18.736c.606-.97-.97-1.88-1.576-.91Z" transform="translate(-953.878 -483.816)" fill="#161616"/>
          </g>
        </g>
        <g id="Group_137" data-name="Group 137" transform="translate(59.663 103.306)">
          <g id="Group_136" data-name="Group 136" transform="translate(0)">
            <path id="Path_88" data-name="Path 88" d="M966.139,483.23c8.974-.788,18.432-2.486,27.406-1.516,1.152.121,1.152-1.7,0-1.819-8.974-1.031-18.432.728-27.406,1.516-1.152.121-1.152,1.94,0,1.819Z" transform="translate(-965.275 -479.58)" fill="#161616"/>
          </g>
        </g>
        <g id="Group_139" data-name="Group 139" transform="translate(53.26 124.1)">
          <g id="Group_138" data-name="Group 138" transform="translate(0)">
            <path id="Path_89" data-name="Path 89" d="M955.131,516.861c4.426,2.607,9.58,2.365,14.552,2.243,5.214-.182,10.429-.788,14.976-3.517,1.031-.606.061-2.183-.909-1.576-4.3,2.607-9.156,3.092-14.067,3.274-4.608.182-9.459.485-13.642-1.94-.97-.606-1.88.97-.909,1.516Z" transform="translate(-954.716 -513.875)" fill="#161616"/>
          </g>
        </g>
        <g id="Group_141" data-name="Group 141" transform="translate(81.743 104.357)">
          <g id="Group_140" data-name="Group 140" transform="translate(0)">
            <path id="Path_90" data-name="Path 90" d="M1007.032,481.972a106.708,106.708,0,0,1-5.275,19.4c-.424,1.091,1.334,1.576,1.758.485a98.861,98.861,0,0,0,5.275-19.4c.182-1.152-1.576-1.637-1.758-.485Z" transform="translate(-1001.692 -481.314)" fill="#161616"/>
          </g>
        </g>
        <g id="Group_143" data-name="Group 143" transform="translate(58.798 108.032)">
          <g id="Group_142" data-name="Group 142">
            <path id="Path_91" data-name="Path 91" d="M963.94,488.785c2.971,6.548,11.4,8.185,17.887,8.246a.911.911,0,0,0,0-1.819c-5.821-.121-13.643-1.455-16.31-7.4-.485-1.031-2.061-.061-1.576.97Z" transform="translate(-963.849 -487.375)" fill="#161616"/>
          </g>
        </g>
        <g id="Group_145" data-name="Group 145" transform="translate(71.435 114.459)">
          <g id="Group_144" data-name="Group 144" transform="translate(0)">
            <path id="Path_92" data-name="Path 92" d="M985.242,498.839c-.182,1.516-.364,3.032-.546,4.487-.121,1.152,1.7,1.152,1.819,0,.182-1.516.364-3.032.546-4.487.121-1.152-1.7-1.152-1.819,0Z" transform="translate(-984.69 -497.975)" fill="#161616"/>
          </g>
        </g>
        <g id="Group_147" data-name="Group 147" transform="translate(74.951 114.459)">
          <g id="Group_146" data-name="Group 146" transform="translate(0)">
            <path id="Path_93" data-name="Path 93" d="M990.981,498.839c-.182,1.516-.364,3.032-.485,4.547-.121,1.152,1.7,1.152,1.819,0,.182-1.516.364-3.032.485-4.547.121-1.152-1.7-1.152-1.819,0Z" transform="translate(-990.49 -497.975)" fill="#161616"/>
          </g>
        </g>
        <g id="Group_149" data-name="Group 149" transform="translate(75.875 109.11)">
          <g id="Group_148" data-name="Group 148" transform="translate(0)">
            <path id="Path_94" data-name="Path 94" d="M993.157,497.912a15.764,15.764,0,0,0,10.126-7.4.91.91,0,0,0-1.576-.909,14.2,14.2,0,0,1-9.034,6.548.912.912,0,0,0,.485,1.758Z" transform="translate(-992.014 -489.152)" fill="#161616"/>
          </g>
        </g>
        <g id="Group_151" data-name="Group 151" transform="translate(63.147 23.654)">
          <g id="Group_150" data-name="Group 150" transform="translate(0)">
            <path id="Path_95" data-name="Path 95" d="M971.615,348.872c-1.819,10.732.182,23.526,11.156,28.437,1.031.485,2-1.091.91-1.576-10.247-4.608-12.005-16.432-10.308-26.375.182-1.152-1.576-1.637-1.758-.485Z" transform="translate(-971.022 -348.214)" fill="#161616"/>
          </g>
        </g>
        <g id="Group_153" data-name="Group 153" transform="translate(101.028 20.486)">
          <g id="Group_152" data-name="Group 152" transform="translate(0)">
            <path id="Path_96" data-name="Path 96" d="M1033.5,343.9a98.058,98.058,0,0,0,.546,10.368c.485,3.7,3.82,7.822,2.062,11.52-.485,1.031,1.091,2,1.576.909,1.576-3.335.182-6.124-.97-9.4-1.516-4.184-1.152-9.034-1.334-13.461-.121-1.152-1.94-1.152-1.88.061Z" transform="translate(-1033.498 -342.987)" fill="#161616"/>
          </g>
        </g>
        <g id="Group_155" data-name="Group 155" transform="translate(79.525 50.472)">
          <g id="Group_154" data-name="Group 154" transform="translate(0)">
            <path id="Path_97" data-name="Path 97" d="M998.377,393.447a4.288,4.288,0,0,1,6.306,2.971c.061.3.485.182.424-.121a4.774,4.774,0,0,0-6.973-3.274c-.243.182,0,.606.242.424Z" transform="translate(-998.034 -392.442)" fill="#fff"/>
          </g>
        </g>
        <g id="Group_157" data-name="Group 157" transform="translate(84.396 54.185)">
          <g id="Group_156" data-name="Group 156" transform="translate(0)">
            <path id="Path_98" data-name="Path 98" d="M1006.148,398.951a4.367,4.367,0,0,1,.91,1.637c.121.3.546.182.424-.121a6.725,6.725,0,0,0-1.031-1.819c-.182-.243-.546.121-.3.3Z" transform="translate(-1006.067 -398.567)" fill="#fff"/>
          </g>
        </g>
        <g id="Group_159" data-name="Group 159" transform="translate(96.233 44.217)">
          <g id="Group_158" data-name="Group 158" transform="translate(0)">
            <path id="Path_99" data-name="Path 99" d="M1026.02,388.234a8.279,8.279,0,0,1,4.426-5.7.219.219,0,1,0-.243-.364,8.375,8.375,0,0,0-4.608,5.942c-.061.3.364.424.424.121Z" transform="translate(-1025.59 -382.126)" fill="#fff"/>
          </g>
        </g>
      </g>
      <g id="head" transform="translate(124.081)">
        <path id="Path_100" data-name="Path 100" d="M835.28,178.84c-4.184,2.122-7.7,6.124-9.277,7.882-3.88,4.426-5.881,8.549-8.064,13.157a84.343,84.343,0,0,0-5.639,15.765c2.365.424,4.729.788,7.094,1.213a35,35,0,0,0,.788,9.7c.849,3.638,2.243,9.459,7.094,13.521,6.67,5.7,15.522,4.3,17.159,4.062a25.111,25.111,0,0,0,3.032,11.1c.606,1.031,1.213,2,1.819,2.85a38.363,38.363,0,0,0,13.521-7.094c12.854-10.368,14.613-25.83,15.158-30.316.788-6.912,2.3-19.948-6.245-30.741C862.807,178.779,845.891,173.5,835.28,178.84Z" transform="translate(-811.221 -163.296)" fill="#fff"/>
        <path id="Path_101" data-name="Path 101" d="M824.936,184.5a37.014,37.014,0,0,1,8.671-8.913c5.942-4.184,8.61-2.425,11.641-6.124,2.183-2.668,3.577-7.033,1.94-9.095-2.607-3.274-11.884.667-13.1,1.213-2.668,1.152-11.46,4.851-14.976,14.188-2.91,7.822-.97,16.371.364,16.553.364.061.606-.546,2.547-3.517C822.936,187.285,823.966,185.891,824.936,184.5Z" transform="translate(-813.307 -156.341)" fill="#5222d0"/>
        <path id="Path_102" data-name="Path 102" d="M851.18,164.469c-.485,1.576-1.213,4.729,1.213,10.914,4.3,11.1,14.37,21.04,19.4,19.221,1.091-.424,2.243-1.516,4.426-1.637a6.945,6.945,0,0,1,4.426,1.213c2.668,2.122,2.789,6.73,1.031,9.7-.3.546-1.94,3.032-4.426,3.214-2.183.182-2.91-1.516-4.669-1.637-4.3-.243-8,9.216-8.489,10.49a28.634,28.634,0,0,0-1.637,16.8,25.174,25.174,0,0,0,3.82,9.277c5.639,8.185,15.1,10.186,18.614,10.914,3.456.728,16.613,3.456,26.86-5.033a23.686,23.686,0,0,0,8.489-13.764c2.486-13.218-8.61-23.1-9.277-23.647a81.839,81.839,0,0,0-7.882-29.71c-3.638-7.579-7.033-14.552-14.734-19.827-10.126-6.852-24.859-8.792-32.56-2.85A14.87,14.87,0,0,0,851.18,164.469Z" transform="translate(-826.333 -154.564)" fill="#5222d0"/>
        <path id="Path_103" data-name="Path 103" d="M829.815,278.2a13.646,13.646,0,0,0-4.062,8.064c-.667,6.063,3.4,10.247,4.244,11.1,4.426,4.548,11.823,6.366,17.159,3.638.424-.182,5.093-2.668,5.275-6.245.061-1.576-.788-2.365-2-5.881-.788-2.3-1.273-4.184-1.637-5.457a17.12,17.12,0,0,1-7.882.788A18.336,18.336,0,0,1,829.815,278.2Z" transform="translate(-816.488 -203.236)" fill="#5222d0"/>
        <path id="Path_104" data-name="Path 104" d="M852.5,179.7a20.827,20.827,0,0,0,1.576,7.64,21.609,21.609,0,0,0,2.365,4.184c2.547,3.881,3.4,7.518,4.729,11.581,2.122,6.306,1.758,11.581,1.334,18.129a75.137,75.137,0,0,1-5.518,23.4,24.872,24.872,0,0,1,6.548,3.153c4.669,3.153,6.791,6.912,8.125,8.671,2.728,3.577,8.792,7.337,23.4,7.094-1.455-1.455-3.517-3.638-5.76-6.306-5.275-6.185-9.883-11.581-12.612-18.129-1.576-3.759-4-11.46-2.122-22.616a5.289,5.289,0,0,0,5.275-.243,5,5,0,0,0,2.122-5.275,5.171,5.171,0,0,0-6.306-3.153,32.693,32.693,0,0,0-3.153-6.063,34.746,34.746,0,0,0-6.063-6.852C863.353,192.251,858.866,187.7,852.5,179.7Z" transform="translate(-827.047 -164.459)" fill="#606060" opacity="0.12"/>
        <path id="Path_105" data-name="Path 105" d="M813.4,238.059c.061-.97,3.153-1.758,5.76-1.576,2.3.182,5.033,1.213,4.972,2.122-.061.849-2.607,1.516-4.487,1.576C816.735,240.3,813.4,239.03,813.4,238.059Z" transform="translate(-811.654 -186.803)" fill="#606060" opacity="0.14"/>
        <g id="Group_161" data-name="Group 161" transform="translate(0 28.219)">
          <g id="Group_160" data-name="Group 160" transform="translate(0)">
            <path id="Path_106" data-name="Path 106" d="M819.785,201.587a245.449,245.449,0,0,0-9.216,23.162.868.868,0,0,0,.606,1.091,18.508,18.508,0,0,0,7.215,1.273.911.911,0,0,0,0-1.819,19.444,19.444,0,0,1-6.73-1.213c.182.364.424.728.606,1.091a216.315,216.315,0,0,1,9.034-22.737c.546-.97-1.031-1.94-1.516-.849Z" transform="translate(-810.521 -201.105)" fill="#161616"/>
          </g>
        </g>
        <g id="Group_163" data-name="Group 163" transform="translate(7.626 53.727)">
          <g id="Group_162" data-name="Group 162" transform="translate(0)">
            <path id="Path_107" data-name="Path 107" d="M823.1,244.039c.485,7.822,1.213,16.492,7.033,22.374,5.578,5.7,13.642,5.214,20.979,4.366,1.152-.121,1.152-1.94,0-1.819-6.791.788-14.491,1.455-19.706-3.82-5.457-5.518-6-13.764-6.488-21.1-.061-1.152-1.88-1.152-1.819,0Z" transform="translate(-823.097 -243.175)" fill="#161616"/>
          </g>
        </g>
        <g id="Group_165" data-name="Group 165" transform="translate(32.049 80.369)">
          <g id="Group_164" data-name="Group 164" transform="translate(0)">
            <path id="Path_108" data-name="Path 108" d="M863.391,288.257a40.415,40.415,0,0,0,4.3,12.066c.546,1.031,2.122.121,1.576-.909a39.813,39.813,0,0,1-4.123-11.642c-.182-1.152-1.94-.667-1.758.485Z" transform="translate(-863.378 -287.114)" fill="#161616"/>
          </g>
        </g>
        <g id="Group_167" data-name="Group 167" transform="translate(8.561 60.325)">
          <g id="Group_166" data-name="Group 166" transform="translate(0)">
            <path id="Path_109" data-name="Path 109" d="M824.919,257.6a5.193,5.193,0,0,0,8.549-2.425c.364-1.152-1.395-1.576-1.758-.485a3.292,3.292,0,0,1-5.457,1.576c-.909-.728-2.183.546-1.334,1.334Z" transform="translate(-824.64 -254.057)" fill="#161616"/>
          </g>
        </g>
        <g id="Group_169" data-name="Group 169" transform="translate(13.803 59.589)">
          <g id="Group_168" data-name="Group 168" transform="translate(0)">
            <path id="Path_110" data-name="Path 110" d="M833.9,254.636a4.3,4.3,0,0,1,2.3,1.516.9.9,0,1,0,1.273-1.273,5.868,5.868,0,0,0-3.092-2,.914.914,0,0,0-.485,1.758Z" transform="translate(-833.285 -252.842)" fill="#161616"/>
          </g>
        </g>
        <g id="Group_171" data-name="Group 171" transform="translate(15.426 35.027)">
          <g id="Group_170" data-name="Group 170" transform="translate(0)">
            <path id="Path_111" data-name="Path 111" d="M837.683,216.012c.485-2.547,3.638-2.061,5.336-1.152a6.876,6.876,0,0,1,3.092,3.577c.424,1.091,2.183.606,1.758-.485a8.43,8.43,0,0,0-5.76-5.4c-2.547-.667-5.578.121-6.124,2.971-.243,1.152,1.516,1.637,1.7.485Z" transform="translate(-835.962 -212.333)" fill="#161616"/>
          </g>
        </g>
        <g id="Group_173" data-name="Group 173" transform="translate(15.373 23.994)">
          <g id="Group_172" data-name="Group 172" transform="translate(0)">
            <path id="Path_112" data-name="Path 112" d="M837.588,198.116c2.729-4.547,8.064-1.031,9.156,2.789a.912.912,0,0,0,1.758-.485c-.788-2.789-2.729-5.4-5.7-6.124a6.287,6.287,0,0,0-6.791,2.85.926.926,0,0,0,1.576.97Z" transform="translate(-835.875 -194.136)" fill="#161616"/>
          </g>
        </g>
        <g id="Group_175" data-name="Group 175" transform="translate(18.018 47.194)">
          <g id="Group_174" data-name="Group 174" transform="translate(0)">
            <path id="Path_113" data-name="Path 113" d="M841.124,234.219a.911.911,0,0,0,0-1.819.911.911,0,0,0,0,1.819Z" transform="translate(-840.237 -232.4)" fill="#161616"/>
          </g>
        </g>
        <g id="Group_177" data-name="Group 177" transform="translate(21.452 44.466)">
          <g id="Group_176" data-name="Group 176" transform="translate(0)">
            <path id="Path_114" data-name="Path 114" d="M846.81,229.719h.242a.909.909,0,0,0,0-1.819h-.242a.933.933,0,0,0-.91.909.893.893,0,0,0,.91.909Z" transform="translate(-845.9 -227.9)" fill="#161616"/>
          </g>
        </g>
        <g id="Group_179" data-name="Group 179" transform="translate(22.422 48.513)">
          <g id="Group_178" data-name="Group 178" transform="translate(0)">
            <path id="Path_115" data-name="Path 115" d="M847.5,235.439v.182a.911.911,0,0,0,1.819,0v-.182a.911.911,0,0,0-1.819,0v.182a.911.911,0,0,0,1.819,0v-.182a.911.911,0,0,0-1.819,0Z" transform="translate(-847.5 -234.575)" fill="#161616"/>
          </g>
        </g>
        <g id="Group_181" data-name="Group 181" transform="translate(45.957 37.102)">
          <g id="Group_180" data-name="Group 180" transform="translate(0)">
            <path id="Path_116" data-name="Path 116" d="M889.217,218.753c1.637-2.365,4.426-.849,5.4,1.091a9.975,9.975,0,0,1,.728,4.972c-.243,4.123-3.7,7.033-7.7,4.487-.97-.667-1.88.909-.909,1.576a6.55,6.55,0,0,0,7.761-.061c2.425-1.88,2.85-4.972,2.668-7.882-.182-2.789-1.273-5.881-4.184-6.912a4.525,4.525,0,0,0-5.336,1.819c-.606.909.97,1.819,1.576.909Z" transform="translate(-886.316 -215.755)" fill="#161616"/>
          </g>
        </g>
      </g>
      <g id="binocular" transform="translate(0 1.63)">
        <path id="Path_117" data-name="Path 117" d="M616.214,161.356c-1.273,0-2.547.061-3.759.061a47.9,47.9,0,0,0-3.88,10.308,49.067,49.067,0,0,0-1.091,17.462,40,40,0,0,0,.91,5.093h3.274l1.273,4.366c10.247-.061,18.675-.061,24.556,0,35.652.3,60.512,1.7,66.272,2,7.215.424,13.1.849,16.735,1.091.121-2.243.728-3.032,1.273-3.274.97-.424,1.819.606,3.092.364,1.334-.243,2.183-1.637,2.729-2.91a9.23,9.23,0,0,0,5.457.909,8.492,8.492,0,0,0,1.455-.364l3.092-6.185a19.237,19.237,0,0,0-6-.909,20.455,20.455,0,0,0-3.638.364c-.121-.3-1.091-3.032-3.638-3.638a4.423,4.423,0,0,0-2,0l-1.091-2c-1.455-.243-3.7-.606-6.366-1.091-21.646-3.941-36.744-8.731-48.264-12.187-11.035-3.335-27.1-7.882-47.718-12.915C618.033,159.052,617.124,160.2,616.214,161.356Z" transform="translate(-606.378 -157.507)" fill="#fff"/>
        <path id="Path_118" data-name="Path 118" d="M607.649,191.18c.546-.121,1.152,1.273,1.819,1.091,1.091-.243.849-4.062,1.091-6.912A27.158,27.158,0,0,1,614.2,173.9c1.758.728,4.426,1.88,7.64,3.274,11.581,5.033,19.584,8.913,22.01,10,16.007,7.458,33.591,10.793,38.017,11.642a175.458,175.458,0,0,0,40.745,2.91l-2.183,6c-2.789-.061-6.852-.061-11.823-.182-21.343-.424-36.258-1.091-44.808-1.455-12.066-.485-29.346-.97-51.174-.909l-.728-4.911L607.71,201C606.8,193.424,607.043,191.3,607.649,191.18Z" transform="translate(-606.362 -163.806)" fill="#606060" opacity="0.07"/>
        <g id="Group_183" data-name="Group 183" transform="translate(3.388)">
          <g id="Group_182" data-name="Group 182" transform="translate(0)">
            <path id="Path_119" data-name="Path 119" d="M619.187,157.706a48.392,48.392,0,0,0-5.821,39.654.912.912,0,0,0,1.758-.485,46.551,46.551,0,0,1,5.639-38.259c.667-1.031-.91-1.94-1.576-.91Z" transform="translate(-611.466 -157.252)" fill="#161616"/>
          </g>
        </g>
        <g id="Group_185" data-name="Group 185" transform="translate(12.071 0.418)">
          <g id="Group_184" data-name="Group 184">
            <path id="Path_120" data-name="Path 120" d="M626.4,159.736Q677.6,172.65,728.749,185.5a.912.912,0,0,0,.485-1.758q-51.2-12.915-102.348-25.769a.914.914,0,0,0-.485,1.758Z" transform="translate(-625.785 -157.942)" fill="#161616"/>
          </g>
        </g>
        <g id="Group_187" data-name="Group 187" transform="translate(5.698 40.229)">
          <g id="Group_186" data-name="Group 186">
            <path id="Path_121" data-name="Path 121" d="M616.139,225.48q53.387-.455,106.714,2.486c1.152.061,1.152-1.758,0-1.819q-53.3-2.91-106.714-2.486a.911.911,0,0,0,0,1.819Z" transform="translate(-615.275 -223.601)" fill="#161616"/>
          </g>
        </g>
        <g id="Group_189" data-name="Group 189" transform="translate(112.872 25.951)">
          <g id="Group_188" data-name="Group 188" transform="translate(0)">
            <path id="Path_122" data-name="Path 122" d="M793.651,201.415a16.775,16.775,0,0,1-1.455,16.432c-.667.97.909,1.88,1.576.91a18.532,18.532,0,0,0,1.455-18.251c-.485-1.031-2.061-.121-1.576.909Z" transform="translate(-792.034 -200.052)" fill="#161616"/>
          </g>
        </g>
        <g id="Group_191" data-name="Group 191" transform="translate(115.45 27.905)">
          <g id="Group_190" data-name="Group 190" transform="translate(0)">
            <path id="Path_123" data-name="Path 123" d="M797.143,205.049c.667.485,1.152.3,1.94.485,1.516.424,2.122,1.819,2.425,3.274.485,2.668-.182,8.307-4.123,6.73-1.091-.424-1.577,1.334-.485,1.758,4,1.576,6.609-2.607,6.609-6.124a10.509,10.509,0,0,0-1.334-5.76,4.014,4.014,0,0,0-1.455-1.395c-.788-.364-1.88-.121-2.547-.606a.969.969,0,0,0-1.031,1.637Z" transform="translate(-796.285 -203.275)" fill="#161616"/>
          </g>
        </g>
        <g id="Group_193" data-name="Group 193" transform="translate(120.779 31.111)">
          <g id="Group_192" data-name="Group 192" transform="translate(0)">
            <path id="Path_124" data-name="Path 124" d="M805.939,210.465a46.731,46.731,0,0,1,9.216.3c1.152.121,1.152-1.7,0-1.819a52.071,52.071,0,0,0-9.216-.3c-1.152.121-1.152,1.94,0,1.819Z" transform="translate(-805.075 -208.562)" fill="#161616"/>
          </g>
        </g>
        <g id="Group_195" data-name="Group 195" transform="translate(120.742 37.911)">
          <g id="Group_194" data-name="Group 194">
            <path id="Path_125" data-name="Path 125" d="M805.672,221.55a28.022,28.022,0,0,0,7.458.364c1.152-.121,1.152-1.94,0-1.819a26.8,26.8,0,0,1-6.973-.3c-1.152-.182-1.637,1.516-.485,1.758Z" transform="translate(-805.014 -219.778)" fill="#161616"/>
          </g>
        </g>
        <g id="Group_197" data-name="Group 197" transform="translate(0 2.702)">
          <g id="Group_196" data-name="Group 196">
            <path id="Path_126" data-name="Path 126" d="M615.956,162.37c-5.881-3.4-7.518,7.215-8.307,10.55-1.819,7.7-2.668,15.643-.424,23.344a.972.972,0,0,0,.849.667H610.5a.911.911,0,0,0,0-1.819h-2.425a10.376,10.376,0,0,1,.849.667,38.855,38.855,0,0,1-.667-16.917c.424-2.547.97-5.093,1.637-7.579.424-1.637,1.758-9.337,5.093-7.337a.926.926,0,0,0,.97-1.576Z" transform="translate(-605.877 -161.709)" fill="#161616"/>
          </g>
        </g>
      </g>
      <g id="hand" transform="translate(61.459 16.135)">
        <path id="Path_127" data-name="Path 127" d="M721.818,183.547a3.808,3.808,0,0,0-3.153-1.152c-2,.121-3.941,1.94-6.063,6.366a44.65,44.65,0,0,0-4.3,18.19,74.387,74.387,0,0,0,4.608,26.557,131.2,131.2,0,0,0,2.91,19.039c3.092,13.824,6.367,28.376,17.644,41.291,4.244,4.911,12.612,14.431,27.164,17.887a47.83,47.83,0,0,0,30.62-3.153A46.6,46.6,0,0,0,807.674,295.6c3.82-4.79,8.246-10,7.518-16.432-.3-2.789-1.516-5.154-3.335-8.913s-2.789-5.639-4.729-6.366c-2.668-1.031-5.518.788-8.67,2.607-5.336,3.032-5.821,5.942-11.581,8.974a37.021,37.021,0,0,1-6.063,2.3c-4.79,1.576-9.519,3.153-13.885,3.456-9.519.667-17.159-4.79-19.342-6.366-8.064-5.76-11.217-13.461-13.279-18.493a54.758,54.758,0,0,1-3.456-27.709,11.938,11.938,0,0,0,5.457-2.3c3.214-2.486,4-5.942,5.214-11.278.788-3.335,1.152-5.093.3-5.76-1.758-1.334-7.155,3.032-8.367,4.062a52.484,52.484,0,0,1,1.455-9.823c.788-3.153,1.213-4.79,2.3-6.063,2.122-2.486,4.608-2.243,5.457-4.608a3.951,3.951,0,0,0-.606-4.062c-1.213-1.213-3.82-1.152-6.063.606a4.356,4.356,0,0,0-3.759-2.607,4.224,4.224,0,0,0-2.91,1.152,3.686,3.686,0,0,0-1.758-3.759c-1.637-.849-4.244.121-5.214,2.607A3.936,3.936,0,0,0,721.818,183.547Z" transform="translate(-707.655 -181.652)" fill="#fff"/>
        <path id="Path_128" data-name="Path 128" d="M718.6,182.4a43.552,43.552,0,0,0-4.487,11.217c-2.668,10.671-.485,19.584.485,23.889,10.429,44.444,5.881,45.535,13.157,55.964,2.668,3.759,20.979,28.983,48.264,25.648,22.859-2.789,34.985-23.586,36.562-26.375a23.159,23.159,0,0,1,1.273,11.46c-1.091,7.215-5.578,11.763-7.215,13.461a54.126,54.126,0,0,1-7.458,5.7,94.49,94.49,0,0,1-8.489,5.457c-7.215,4.062-18.372,5.033-26.133,4-21.1-2.789-33.773-22.8-39.048-31.1-12.066-18.978-13.279-38.2-13.157-47.779-1.152-3.881-2.3-7.822-3.456-11.7a87.75,87.75,0,0,1-.728-14.431c.3-8.671.546-15.158,4.972-20.676A20.539,20.539,0,0,1,718.6,182.4Z" transform="translate(-707.587 -181.657)" fill="#606060" opacity="0.12"/>
        <g id="Group_199" data-name="Group 199" transform="translate(22.233 50.386)">
          <g id="Group_198" data-name="Group 198">
            <path id="Path_129" data-name="Path 129" d="M814.783,334.685c9.58-4.547,16.007-14.067,14.431-24.86C828.3,303.277,823.03,292,814.6,296c-3.759,1.819-6.852,5.154-10.307,7.518a61.352,61.352,0,0,1-15.825,7.579c-7.033,2.243-14.855,2.728-21.646-.667A30.748,30.748,0,0,1,755,299.275a56.289,56.289,0,0,1-9.156-34.136c.061-1.152-1.758-1.152-1.819,0a56.464,56.464,0,0,0,6.063,28.983c3.941,8.125,9.7,15.765,18.432,19.039,10.611,3.941,22.192-.061,31.772-5.093a88.44,88.44,0,0,0,11.884-8.246c3.517-2.729,7.033-4.062,10.611-.424,4.426,4.487,5.76,12.309,4.426,18.251-1.637,7.094-6.912,12.43-13.339,15.461-1.031.485-.121,2.062.909,1.576Z" transform="translate(-743.909 -264.275)" fill="#161616"/>
          </g>
        </g>
        <g id="Group_201" data-name="Group 201" transform="translate(21.921 26.267)">
          <g id="Group_200" data-name="Group 200" transform="translate(0)">
            <path id="Path_130" data-name="Path 130" d="M745.52,250.267c-.788-3.335,1.576-4.184,3.759-5.76a14.292,14.292,0,0,0,3.153-3.456,25.621,25.621,0,0,0,4.608-11.278c.243-2,.667-5.154-2.062-5.275-3.214-.121-4.547,3.941-7.579,4.244-1.152.121-1.152,1.94,0,1.819,2.3-.243,3.456-1.7,5.214-3.032,1.031-.788,2.183-1.7,2.729.061.3.97-.182,2.789-.424,3.759a23.676,23.676,0,0,1-2.3,5.942,20.32,20.32,0,0,1-3.335,4.851c-1.273,1.334-3.032,1.637-4.426,2.729-1.88,1.455-1.576,3.941-1.091,5.942.3,1.091,2.062.606,1.758-.546Z" transform="translate(-743.395 -224.496)" fill="#161616"/>
          </g>
        </g>
        <g id="Group_203" data-name="Group 203" transform="translate(0)">
          <g id="Group_202" data-name="Group 202" transform="translate(0)">
            <path id="Path_131" data-name="Path 131" d="M710.126,223.633a77.311,77.311,0,0,1-.121-23.647,50.332,50.332,0,0,1,2.183-9.4,17.516,17.516,0,0,1,2.91-5.578c1.819-2,5.4-3.032,6.366.364a.912.912,0,0,0,1.758-.485,4.805,4.805,0,0,0-6.548-3.335c-3.7,1.516-5.457,6.063-6.609,9.519-3.4,10.49-3.4,22.252-1.758,33.045.243,1.152,2,.667,1.819-.485Z" transform="translate(-707.24 -181.175)" fill="#161616"/>
          </g>
        </g>
        <g id="Group_205" data-name="Group 205" transform="translate(9.854 2.009)">
          <g id="Group_204" data-name="Group 204" transform="translate(0)">
            <path id="Path_132" data-name="Path 132" d="M725.316,193.651c1.455-3.577,5.578-10.793,10.065-5.881.788.849,2.062-.424,1.273-1.273a5.938,5.938,0,0,0-7.64-1.091c-2.91,1.637-4.244,4.851-5.457,7.822-.424,1.031,1.334,1.516,1.758.424Z" transform="translate(-723.492 -184.488)" fill="#161616"/>
          </g>
        </g>
        <g id="Group_207" data-name="Group 207" transform="translate(17.497 4.459)">
          <g id="Group_206" data-name="Group 206" transform="translate(0)">
            <path id="Path_133" data-name="Path 133" d="M737.918,196.758c.061-2.3.97-4.851,3.214-5.942a4.369,4.369,0,0,1,5.4,1.152c.728.91,2-.364,1.273-1.273a6.226,6.226,0,0,0-7.4-1.576c-2.91,1.395-4.244,4.547-4.3,7.64-.061,1.152,1.758,1.152,1.819,0Z" transform="translate(-736.097 -188.529)" fill="#161616"/>
          </g>
        </g>
        <g id="Group_209" data-name="Group 209" transform="translate(22.799 5.811)">
          <g id="Group_208" data-name="Group 208" transform="translate(0)">
            <path id="Path_134" data-name="Path 134" d="M746.636,198.241c1.091-4.062,5.639-7.761,9.58-4.487.91.728,2.183-.546,1.273-1.273-5.032-4.123-11.1-.243-12.612,5.275a.912.912,0,0,0,1.758.485Z" transform="translate(-744.842 -190.758)" fill="#161616"/>
          </g>
        </g>
        <g id="Group_211" data-name="Group 211" transform="translate(24.89 7.136)">
          <g id="Group_210" data-name="Group 210" transform="translate(0)">
            <path id="Path_135" data-name="Path 135" d="M757.209,194.312c1.94,2.728-2.365,4.426-3.881,5.7a8.377,8.377,0,0,0-2.547,3.881,53.758,53.758,0,0,0-2.486,13.1c-.121,1.152,1.7,1.152,1.819,0a64.418,64.418,0,0,1,1.577-9.58,29.329,29.329,0,0,1,.849-3.092c.788-2.122,1.94-2.91,3.7-4.184,2.183-1.576,4.487-4.123,2.547-6.852-.667-.849-2.243.061-1.576,1.031Z" transform="translate(-748.29 -192.945)" fill="#161616"/>
          </g>
        </g>
        <g id="Group_213" data-name="Group 213" transform="translate(0.619 39.496)">
          <g id="Group_212" data-name="Group 212">
            <path id="Path_136" data-name="Path 136" d="M708.285,247.457a97.1,97.1,0,0,0,3.7,12.187c.424,1.091,2.183.606,1.758-.485a97.084,97.084,0,0,1-3.7-12.187c-.243-1.152-2-.667-1.758.485Z" transform="translate(-708.262 -246.314)" fill="#161616"/>
          </g>
        </g>
        <g id="Group_215" data-name="Group 215" transform="translate(4.032 53.122)">
          <g id="Group_214" data-name="Group 214">
            <path id="Path_137" data-name="Path 137" d="M713.9,269.644c2.3,20.858,7.458,42.261,21.464,58.511,11.156,12.915,28.861,22.737,46.324,19.524a42.821,42.821,0,0,0,21.767-11.4c.849-.788-.424-2.122-1.273-1.273a39.667,39.667,0,0,1-44.323,7.7c-16.371-7.458-27.831-21.464-34.318-38.017-4.366-11.217-6.548-23.1-7.882-34.985-.061-1.213-1.88-1.213-1.758-.061Z" transform="translate(-713.89 -268.787)" fill="#161616"/>
          </g>
        </g>
      </g>
    </g>
  </g>
</svg>
